<svg width="16" height="17" viewBox="0 0 16 17" fill="none" xmlns="http://www.w3.org/2000/svg">
<path d="M8.94004 8.49988L13.14 4.30655C13.2656 4.18101 13.3361 4.01075 13.3361 3.83321C13.3361 3.65568 13.2656 3.48542 13.14 3.35988C13.0145 3.23434 12.8442 3.16382 12.6667 3.16382C12.4892 3.16382 12.3189 3.23434 12.1934 3.35988L8.00004 7.55988L3.80671 3.35988C3.68117 3.23434 3.51091 3.16382 3.33337 3.16382C3.15584 3.16382 2.98558 3.23434 2.86004 3.35988C2.7345 3.48542 2.66398 3.65568 2.66398 3.83321C2.66398 4.01075 2.7345 4.18101 2.86004 4.30655L7.06004 8.49988L2.86004 12.6932C2.79756 12.7552 2.74796 12.8289 2.71411 12.9102C2.68027 12.9914 2.66284 13.0785 2.66284 13.1665C2.66284 13.2546 2.68027 13.3417 2.71411 13.4229C2.74796 13.5042 2.79756 13.5779 2.86004 13.6399C2.92202 13.7024 2.99575 13.752 3.07699 13.7858C3.15823 13.8197 3.24537 13.8371 3.33337 13.8371C3.42138 13.8371 3.50852 13.8197 3.58976 13.7858C3.671 13.752 3.74473 13.7024 3.80671 13.6399L8.00004 9.43988L12.1934 13.6399C12.2554 13.7024 12.3291 13.752 12.4103 13.7858C12.4916 13.8197 12.5787 13.8371 12.6667 13.8371C12.7547 13.8371 12.8419 13.8197 12.9231 13.7858C13.0043 13.752 13.0781 13.7024 13.14 13.6399C13.2025 13.5779 13.2521 13.5042 13.286 13.4229C13.3198 13.3417 13.3372 13.2546 13.3372 13.1665C13.3372 13.0785 13.3198 12.9914 13.286 12.9102C13.2521 12.8289 13.2025 12.7552 13.14 12.6932L8.94004 8.49988Z" fill="white"/>
</svg>
