<svg width="21" height="18" viewBox="0 0 21 18" fill="none" xmlns="http://www.w3.org/2000/svg">
<path fill-rule="evenodd" clip-rule="evenodd" d="M5 9C5 7.89543 5.89543 7 7 7C8.10457 7 9 7.89543 9 9C9 10.1046 8.10457 11 7 11C5.89543 11 5 10.1046 5 9Z" fill="white"/>
<path fill-rule="evenodd" clip-rule="evenodd" d="M11 9C11 7.89543 11.8954 7 13 7C14.1046 7 15 7.89543 15 9C15 10.1046 14.1046 11 13 11C11.8954 11 11 10.1046 11 9Z" fill="white"/>
<path fill-rule="evenodd" clip-rule="evenodd" d="M10.0003 4.75C8.75365 4.75 7.47776 4.97502 5.77498 5.46152C5.24394 5.61325 4.69046 5.30576 4.53873 4.77472C4.38701 4.24369 4.6945 3.6902 5.22554 3.53848C7.02276 3.02498 8.49687 2.75 10.0003 2.75C11.5036 2.75 12.9778 3.02498 14.775 3.53848C15.306 3.6902 15.6135 4.24369 15.4618 4.77472C15.3101 5.30576 14.7566 5.61325 14.2255 5.46152C12.5228 4.97502 11.2469 4.75 10.0003 4.75Z" fill="white"/>
<path fill-rule="evenodd" clip-rule="evenodd" d="M4.03873 13.2253C4.19046 12.6942 4.74394 12.3867 5.27498 12.5385C8.59542 13.4872 11.4051 13.4872 14.7255 12.5385C15.2566 12.3867 15.8101 12.6942 15.9618 13.2253C16.1135 13.7563 15.806 14.3098 15.275 14.4615C11.5954 15.5128 8.40509 15.5128 4.72554 14.4615C4.1945 14.3098 3.88701 13.7563 4.03873 13.2253Z" fill="white"/>
<path fill-rule="evenodd" clip-rule="evenodd" d="M12.0718 0.628607C12.2382 0.212663 12.6609 -0.0418774 13.1063 0.00563815C14.6751 0.172971 16.4135 0.524193 18.0719 1.67947C18.2437 1.79916 18.3736 1.96975 18.4433 2.16719C19.4649 5.06201 20.0269 7.59675 20.2448 9.64419C20.4585 11.6526 20.354 13.3085 19.9287 14.3715C19.9184 14.3973 19.907 14.4226 19.8946 14.4475C19.5229 15.1902 18.9608 16.0398 18.2573 16.7192C17.5685 17.3844 16.6229 18 15.5003 18C15.1459 18 14.8676 17.841 14.7333 17.7554C14.5689 17.6506 14.4162 17.5203 14.2832 17.3922C14.0142 17.1332 13.7389 16.7989 13.4935 16.4485C13.2469 16.0962 13.0103 15.6985 12.8313 15.3028C12.6626 14.9298 12.5003 14.4624 12.5003 14C12.5003 13.4477 12.948 13 13.5003 13C14.0526 13 14.5003 13.4477 14.5003 14C14.5003 14.0376 14.5254 14.1952 14.6536 14.4785C14.7714 14.739 14.9411 15.0288 15.132 15.3015C15.3242 15.5761 15.5175 15.8043 15.6705 15.9516C15.6814 15.962 15.6916 15.9717 15.7013 15.9807C16.0397 15.9174 16.4371 15.6966 16.868 15.2805C17.3614 14.8041 17.791 14.1718 18.0859 13.5922C18.3191 12.9749 18.4551 11.7265 18.256 9.85581C18.0647 8.05778 17.5748 5.78528 16.6668 3.14717C15.7091 2.54527 14.6993 2.2548 13.641 2.09072L12.9287 3.87139C12.7236 4.38417 12.1417 4.63359 11.6289 4.42847C11.1161 4.22336 10.8667 3.64139 11.0718 3.12861L12.0718 0.628607ZM15.8082 16.0688C15.8071 16.0681 15.8058 16.0672 15.8042 16.0661C15.8194 16.0742 15.8213 16.0771 15.8082 16.0688Z" fill="white"/>
<path fill-rule="evenodd" clip-rule="evenodd" d="M6.89088 0.00599128C7.33738 -0.0431088 7.76183 0.211541 7.92866 0.628609L8.92866 3.12861C9.13377 3.64139 8.88436 4.22336 8.37157 4.42848C7.85879 4.63359 7.27682 4.38417 7.07171 3.87139L6.36144 2.09572C5.3887 2.25796 4.49278 2.5433 3.60772 3.13002C2.74205 5.77143 2.27459 8.04807 2.09197 9.85079C1.90202 11.7258 2.03124 12.9833 2.25657 13.6086C2.53837 14.1906 2.94779 14.8229 3.41598 15.2977C3.80445 15.6917 4.15353 15.8991 4.44205 15.9707C4.57768 15.8268 4.74862 15.6054 4.91949 15.3374C5.0929 15.0654 5.24763 14.7746 5.35565 14.5112C5.47179 14.228 5.50018 14.0576 5.50018 14C5.50018 13.4477 5.9479 13 6.50018 13C7.05247 13 7.50018 13.4477 7.50018 14C7.50018 14.4424 7.35907 14.897 7.20609 15.2701C7.04498 15.6629 6.83097 16.0596 6.60587 16.4126C6.38241 16.7631 6.12927 17.1 5.8783 17.3627C5.75436 17.4924 5.60908 17.6272 5.44895 17.7369C5.31989 17.8254 5.03773 18 4.66818 18C3.56279 18 2.64592 17.3653 1.99189 16.702C1.31998 16.0206 0.785152 15.1706 0.432385 14.4301C0.420828 14.4058 0.410253 14.3811 0.400686 14.356C-0.000959605 13.3016 -0.101003 11.6546 0.10215 9.64921C0.309139 7.60592 0.84332 5.07435 1.81526 2.18151C1.88109 1.98556 2.00604 1.81482 2.1729 1.6928C3.75886 0.533044 5.34854 0.175595 6.89088 0.00599128Z" fill="white"/>
</svg>
