<svg width="24" height="24" viewBox="0 0 24 24" fill="none" xmlns="http://www.w3.org/2000/svg">
<rect x="1.6123" y="17.5747" width="19.8038" height="3.92533" rx="1.96267" fill="black"/>
<rect x="3.80615" y="16.1863" width="8.81013" height="4.38789" fill="white"/>
<path d="M14.2279 15.2279L9.98494 10.9849L4.32794 16.6419L6.44994 18.7629C7.01252 19.3254 7.77545 19.6413 8.57094 19.6413C9.36643 19.6413 10.1294 19.3254 10.6919 18.7629L14.2279 15.2279ZM13.0768 19.294H19.6119C19.8771 19.294 20.1315 19.3994 20.319 19.5869C20.5065 19.7745 20.5537 20.2248 20.5537 20.49C20.5537 20.7552 20.3946 21.0195 20.207 21.2071C20.0195 21.3946 19.7652 21.4999 19.4999 21.4999H3.49994C3.24641 21.4997 3.00243 21.4032 2.81735 21.2299C2.63228 21.0567 2.51992 20.8196 2.50303 20.5666C2.48613 20.3136 2.45069 19.7692 2.6508 19.4726C2.94443 19.0374 3.40105 18.9245 3.6523 18.8906L2.91394 18.0559C2.539 17.6809 2.32837 17.1723 2.32837 16.6419C2.32837 16.1116 2.539 15.603 2.91394 15.2279L14.2279 3.91394C14.603 3.539 15.1116 3.32837 15.6419 3.32837C16.1723 3.32837 16.6809 3.539 17.0559 3.91394L21.2999 8.15694C21.6749 8.532 21.8855 9.04061 21.8855 9.57094C21.8855 10.1013 21.6749 10.6099 21.2999 10.9849L13.0768 19.294Z" fill="black"/>
</svg>
