<svg width="24" height="24" viewBox="0 0 24 24" fill="none" xmlns="http://www.w3.org/2000/svg">
<rect x="1.6123" y="19.5088" width="19.8038" height="1.9912" rx="0.995601" fill="black"/>
<rect x="4.84351" y="16.1863" width="7.7728" height="4.38789" fill="white"/>
<path d="M14.2279 15.2279L9.98494 10.9849L4.32794 16.6419L6.44994 18.7629C7.01252 19.3254 7.77545 19.6413 8.57094 19.6413C9.36643 19.6413 10.1294 19.3254 10.6919 18.7629L14.2279 15.2279ZM12.7839 19.4999H15.4999C15.7652 19.4999 16.0195 19.6053 16.207 19.7928C16.3946 19.9804 16.4999 20.2347 16.4999 20.4999C16.4999 20.7652 16.3946 21.0195 16.207 21.2071C16.0195 21.3946 15.7652 21.4999 15.4999 21.4999H4.49994C4.24641 21.4997 4.00243 21.4032 3.81735 21.2299C3.63228 21.0567 3.51992 20.8196 3.50302 20.5666C3.48613 20.3136 3.56594 20.0637 3.72633 19.8673C3.88671 19.671 4.11569 19.5429 4.36694 19.5089L2.91394 18.0559C2.539 17.6809 2.32837 17.1723 2.32837 16.6419C2.32837 16.1116 2.539 15.603 2.91394 15.2279L14.2279 3.91394C14.603 3.539 15.1116 3.32837 15.6419 3.32837C16.1723 3.32837 16.6809 3.539 17.0559 3.91394L21.2999 8.15694C21.6749 8.532 21.8855 9.04061 21.8855 9.57094C21.8855 10.1013 21.6749 10.6099 21.2999 10.9849L12.7839 19.4999Z" fill="black"/>
</svg>
