<svg width="1024" height="688" viewBox="0 0 1024 688" fill="none" xmlns="http://www.w3.org/2000/svg">
  <mask id="mask0" mask-type="alpha" maskUnits="userSpaceOnUse" x="0" y="0" width="1024" height="688">
    <rect width="1024" height="688" fill="url(#paint0_linear)" />
  </mask>
  <g mask="url(#mask0)">
    <g filter="url(#filter0_d)">
      <path d="M428.589 -98.0538L424.985 -120.448L385.859 -149.503L139.229 36.5937L-34.0544 272.562L-67.1651 460.553L-42.9025 574.657L-33.336 511.106C-20.9023 485.347 9.71327 438.77 18.8077 406.087C27.902 373.404 46.7781 347.985 81.9567 334.672C117.135 321.36 149.068 314.067 167.944 288.648C186.82 263.229 196.595 208.837 219.691 181.711C242.788 154.586 255.788 148.269 290.967 134.956C326.146 121.644 358.064 105.91 383.461 85.3332C408.858 64.7567 427.734 39.3377 433.568 4.23368C439.401 -30.8703 432.193 -75.6593 428.589 -98.0538Z" fill="url(#paint1_linear)" />
    </g>
    <g filter="url(#filter1_d)">
      <path d="M249.027 27.2809C276.379 0.708852 274.768 -54.8599 290.222 -93.6792L259.288 -125.522L177.64 -46.2024C150.288 -19.6303 146.295 -82.1789 118.943 -55.6069C91.5908 -29.0348 -10.269 -82.1789 -37.6211 -55.6069C-64.9732 -29.0348 -39.9525 165.184 -53.8326 178.669L-67.3046 191.756L-24.472 235.846L3.27747 237.455C31.4352 238.668 86.9341 241.886 109.527 210.415C132.12 178.944 120.99 113.577 143.583 82.1061C166.176 50.6351 221.675 53.853 249.027 27.2809Z" fill="url(#paint2_linear)" />
    </g>
    <g filter="url(#filter2_d)">
      <path d="M356.222 81.5374C380.475 65.6939 444.561 -6.88645 450.722 -40L535.244 -72.5127L535.244 81.5374L25.7441 490.037L-23.9615 455.087C-20.0451 357.166 9.28101 309.082 57.7222 286.5C106.163 263.918 193.405 244.408 230.722 155.5C249.768 110.124 325.906 101.342 356.222 81.5374Z" fill="url(#paint3_linear)" />
    </g>
    <g filter="url(#filter3_d)">
      <path d="M458.531 78.5852C506.468 52.0405 506.473 -18.6985 486.5 -34L622.5 -0.5L517 324L160.5 498L-56.0005 547.5L-6.50049 419.5C40.6875 412.016 100.944 398.5 126.5 341C160.5 264.5 264 252.737 315 230.5C356.195 212.537 334.776 170.183 355 138C375.223 105.817 398.61 111.766 458.531 78.5852Z" fill="url(#paint4_linear)" />
    </g>
    <g filter="url(#filter4_d)">
      <path d="M463 220C438.6 135.6 578.666 27.5 626 -4H806.5V704.5H-5.00049V449C34.4995 547 191.5 460 216 344.5C240.5 229 493.5 325.5 463 220Z" fill="url(#paint5_linear)" />
    </g>
    <g filter="url(#filter5_d)">
      <path d="M519.944 293.263C489.009 317.269 428.977 321.156 413.833 356.878C407.853 374.986 384.091 416.401 336.891 437.201C277.891 463.201 227.391 427.201 138.391 539.701C49.3915 652.201 42.8915 654.701 -23.1085 656.201L-23.1085 737.201L259.891 737.201L490.243 522.808L543.149 446.297L607.232 353.621L670.942 261.484L735.026 168.808L798.736 76.6706L862.819 -16.0054L915.725 -92.5169L926.53 -108.142L907.133 -121.555L883.396 -114.871C860.033 -108.727 812.933 -95.8979 788.463 -67.4209C763.621 -38.4053 761.781 5.71991 737.312 34.1969C712.842 62.6738 665.742 75.5025 631.573 97.273C597.405 119.044 575.796 150.295 564.257 187.714C552.719 225.132 550.88 269.257 519.944 293.263Z" fill="url(#paint6_linear)" />
    </g>
    <g filter="url(#filter6_d)">
      <path d="M521.744 346.105C498.879 369.463 483.048 396.882 481.286 432.424C478.904 462.476 444.54 526.881 326.14 544.081C274.306 547.247 156.14 580.881 98.1397 690.081L528.64 690.081L914.983 112.147L926.276 -78.4031L889.064 -188.964L886.863 -124.736C877.471 -97.718 852.409 -47.9316 847.13 -14.4204C841.851 19.0907 826.02 46.5101 792.604 63.7764C759.188 81.0427 728.305 91.9555 712.474 119.375C696.644 146.794 693.183 201.949 673.355 231.549C653.528 261.149 641.34 268.917 607.924 286.183C574.507 303.45 544.608 322.747 521.744 346.105Z" fill="url(#paint7_linear)" />
    </g>
    <g filter="url(#filter7_d)">
      <path d="M785.669 181.5C816.036 80.0057 903.669 5 946.669 -19H1021.67V714.5H512.669C512.669 714.5 149.669 794.5 306.169 714.5C399.847 666.614 468.419 629.495 512.669 569.5C542.345 529.266 549.208 469.664 589.669 423.5C690.463 308.5 730.169 367 785.669 181.5Z" fill="url(#paint8_linear)" />
    </g>
    <g filter="url(#filter8_d)">
      <path d="M943.5 175.5C997.1 139.1 989.167 39 978.5 -6.5L1069.5 -41L1117.5 205L697.5 703H526C582 681.5 614.5 620 619.5 572C624.5 524 694.5 489 732 457C769.5 425 801.5 376.5 812.5 339C823.5 301.5 876.5 221 943.5 175.5Z" fill="url(#paint9_linear)" />
    </g>
    <g filter="url(#filter9_d)">
      <path d="M657.844 799.509L663.997 821.341L706.203 845.708L1074.84 378.193L1086.14 187.644L1048.92 77.0825L1046.72 141.311C1037.33 168.329 1012.27 218.115 1006.99 251.626C1001.71 285.138 985.881 312.557 952.464 329.823C919.048 347.089 888.165 358.002 872.335 385.422C856.504 412.841 853.043 467.996 833.216 497.596C813.389 527.196 801.2 534.964 767.784 552.23C734.368 569.496 704.469 588.793 681.604 612.151C658.739 635.51 642.909 662.929 641.146 698.471C639.384 734.013 651.691 777.677 657.844 799.509Z" fill="url(#paint10_linear)" />
    </g>
    <g filter="url(#filter10_d)">
      <path d="M817.149 659.872C798.081 692.897 814.789 745.919 810.509 787.482L848.956 809.679L905.873 711.097C924.94 678.072 945.842 737.16 964.909 704.134C983.976 671.109 1028.84 716.66 1047.91 683.634C1066.98 650.609 1057.56 448.375 1067.23 431.616L1076.62 415.349L1023.39 384.614L996.252 390.636C968.831 397.15 914.559 409.192 901.407 445.632C888.255 482.072 916.792 541.924 903.64 578.364C890.488 614.805 836.216 626.847 817.149 659.872Z" fill="url(#paint11_linear)" />
    </g>
  </g>
  <defs>
    <filter id="filter0_d" x="-209.05" y="-227.406" width="724.05" height="849.396" filterUnits="userSpaceOnUse" color-interpolation-filters="sRGB">
      <feFlood flood-opacity="0" result="BackgroundImageFix" />
      <feColorMatrix in="SourceAlpha" type="matrix" values="0 0 0 0 0 0 0 0 0 0 0 0 0 0 0 0 0 0 127 0" />
      <feOffset dx="-6" dy="-6" />
      <feGaussianBlur stdDeviation="10" />
      <feColorMatrix type="matrix" values="0 0 0 0 0 0 0 0 0 0 0 0 0 0 0 0 0 0 0.1 0" />
      <feBlend mode="normal" in2="BackgroundImageFix" result="effect1_dropShadow" />
      <feBlend mode="normal" in="SourceGraphic" in2="effect1_dropShadow" result="shape" />
    </filter>
    <filter id="filter1_d" x="-202.522" y="-263.946" width="571.522" height="568.224" filterUnits="userSpaceOnUse" color-interpolation-filters="sRGB">
      <feFlood flood-opacity="0" result="BackgroundImageFix" />
      <feColorMatrix in="SourceAlpha" type="matrix" values="0 0 0 0 0 0 0 0 0 0 0 0 0 0 0 0 0 0 127 0" />
      <feOffset dx="-6" dy="-6" />
      <feGaussianBlur stdDeviation="10" />
      <feColorMatrix type="matrix" values="0 0 0 0 0 0 0 0 0 0 0 0 0 0 0 0 0 0 0.1 0" />
      <feBlend mode="normal" in2="BackgroundImageFix" result="effect1_dropShadow" />
      <feBlend mode="normal" in="SourceGraphic" in2="effect1_dropShadow" result="shape" />
    </filter>
    <filter id="filter2_d" x="-51.2778" y="-120" width="606.673" height="643.73" filterUnits="userSpaceOnUse" color-interpolation-filters="sRGB">
      <feFlood flood-opacity="0" result="BackgroundImageFix" />
      <feColorMatrix in="SourceAlpha" type="matrix" values="0 0 0 0 0 0 0 0 0 0 0 0 0 0 0 0 0 0 127 0" />
      <feOffset dx="-6" dy="-6" />
      <feGaussianBlur stdDeviation="10" />
      <feColorMatrix type="matrix" values="0 0 0 0 0 0 0 0 0 0 0 0 0 0 0 0 0 0 0.1 0" />
      <feBlend mode="normal" in2="BackgroundImageFix" result="effect1_dropShadow" />
      <feBlend mode="normal" in="SourceGraphic" in2="effect1_dropShadow" result="shape" />
    </filter>
    <filter id="filter3_d" x="-82.0005" y="-60" width="718.5" height="621.5" filterUnits="userSpaceOnUse" color-interpolation-filters="sRGB">
      <feFlood flood-opacity="0" result="BackgroundImageFix" />
      <feColorMatrix in="SourceAlpha" type="matrix" values="0 0 0 0 0 0 0 0 0 0 0 0 0 0 0 0 0 0 127 0" />
      <feOffset dx="-6" dy="-6" />
      <feGaussianBlur stdDeviation="10" />
      <feColorMatrix type="matrix" values="0 0 0 0 0 0 0 0 0 0 0 0 0 0 0 0 0 0 0.1 0" />
      <feBlend mode="normal" in2="BackgroundImageFix" result="effect1_dropShadow" />
      <feBlend mode="normal" in="SourceGraphic" in2="effect1_dropShadow" result="shape" />
    </filter>
    <filter id="filter4_d" x="-31.0005" y="-30" width="851.5" height="748.5" filterUnits="userSpaceOnUse" color-interpolation-filters="sRGB">
      <feFlood flood-opacity="0" result="BackgroundImageFix" />
      <feColorMatrix in="SourceAlpha" type="matrix" values="0 0 0 0 0 0 0 0 0 0 0 0 0 0 0 0 0 0 127 0" />
      <feOffset dx="-6" dy="-6" />
      <feGaussianBlur stdDeviation="10" />
      <feColorMatrix type="matrix" values="0 0 0 0 0 0 0 0 0 0 0 0 0 0 0 0 0 0 0.1 0" />
      <feBlend mode="normal" in2="BackgroundImageFix" result="effect1_dropShadow" />
      <feBlend mode="normal" in="SourceGraphic" in2="effect1_dropShadow" result="shape" />
    </filter>
    <filter id="filter5_d" x="-87.0005" y="-331.14" width="1027.53" height="1253.14" filterUnits="userSpaceOnUse" color-interpolation-filters="sRGB">
      <feFlood flood-opacity="0" result="BackgroundImageFix" />
      <feColorMatrix in="SourceAlpha" type="matrix" values="0 0 0 0 0 0 0 0 0 0 0 0 0 0 0 0 0 0 127 0" />
      <feOffset dx="-6" dy="-6" />
      <feGaussianBlur stdDeviation="10" />
      <feColorMatrix type="matrix" values="0 0 0 0 0 0 0 0 0 0 0 0 0 0 0 0 0 0 0.1 0" />
      <feBlend mode="normal" in2="BackgroundImageFix" result="effect1_dropShadow" />
      <feBlend mode="normal" in="SourceGraphic" in2="effect1_dropShadow" result="shape" />
    </filter>
    <filter id="filter6_d" x="72" y="-337.764" width="980.888" height="1251.06" filterUnits="userSpaceOnUse" color-interpolation-filters="sRGB">
      <feFlood flood-opacity="0" result="BackgroundImageFix" />
      <feColorMatrix in="SourceAlpha" type="matrix" values="0 0 0 0 0 0 0 0 0 0 0 0 0 0 0 0 0 0 127 0" />
      <feOffset dx="-6" dy="-6" />
      <feGaussianBlur stdDeviation="10" />
      <feColorMatrix type="matrix" values="0 0 0 0 0 0 0 0 0 0 0 0 0 0 0 0 0 0 0.1 0" />
      <feBlend mode="normal" in2="BackgroundImageFix" result="effect1_dropShadow" />
      <feBlend mode="normal" in="SourceGraphic" in2="effect1_dropShadow" result="shape" />
    </filter>
    <filter id="filter7_d" x="241" y="-45" width="794.669" height="809.056" filterUnits="userSpaceOnUse" color-interpolation-filters="sRGB">
      <feFlood flood-opacity="0" result="BackgroundImageFix" />
      <feColorMatrix in="SourceAlpha" type="matrix" values="0 0 0 0 0 0 0 0 0 0 0 0 0 0 0 0 0 0 127 0" />
      <feOffset dx="-6" dy="-6" />
      <feGaussianBlur stdDeviation="10" />
      <feColorMatrix type="matrix" values="0 0 0 0 0 0 0 0 0 0 0 0 0 0 0 0 0 0 0.1 0" />
      <feBlend mode="normal" in2="BackgroundImageFix" result="effect1_dropShadow" />
      <feBlend mode="normal" in="SourceGraphic" in2="effect1_dropShadow" result="shape" />
    </filter>
    <filter id="filter8_d" x="500" y="-67" width="631.5" height="784" filterUnits="userSpaceOnUse" color-interpolation-filters="sRGB">
      <feFlood flood-opacity="0" result="BackgroundImageFix" />
      <feColorMatrix in="SourceAlpha" type="matrix" values="0 0 0 0 0 0 0 0 0 0 0 0 0 0 0 0 0 0 127 0" />
      <feOffset dx="-6" dy="-6" />
      <feGaussianBlur stdDeviation="10" />
      <feColorMatrix type="matrix" values="0 0 0 0 0 0 0 0 0 0 0 0 0 0 0 0 0 0 0.1 0" />
      <feBlend mode="normal" in2="BackgroundImageFix" result="effect1_dropShadow" />
      <feBlend mode="normal" in="SourceGraphic" in2="effect1_dropShadow" result="shape" />
    </filter>
    <filter id="filter9_d" x="556" y="23.1274" width="656.748" height="879.328" filterUnits="userSpaceOnUse" color-interpolation-filters="sRGB">
      <feFlood flood-opacity="0" result="BackgroundImageFix" />
      <feColorMatrix in="SourceAlpha" type="matrix" values="0 0 0 0 0 0 0 0 0 0 0 0 0 0 0 0 0 0 127 0" />
      <feOffset dx="-6" dy="-6" />
      <feGaussianBlur stdDeviation="10" />
      <feColorMatrix type="matrix" values="0 0 0 0 0 0 0 0 0 0 0 0 0 0 0 0 0 0 0.1 0" />
      <feBlend mode="normal" in2="BackgroundImageFix" result="effect1_dropShadow" />
      <feBlend mode="normal" in="SourceGraphic" in2="effect1_dropShadow" result="shape" />
    </filter>
    <filter id="filter10_d" x="704" y="320.67" width="481.258" height="557.647" filterUnits="userSpaceOnUse" color-interpolation-filters="sRGB">
      <feFlood flood-opacity="0" result="BackgroundImageFix" />
      <feColorMatrix in="SourceAlpha" type="matrix" values="0 0 0 0 0 0 0 0 0 0 0 0 0 0 0 0 0 0 127 0" />
      <feOffset dx="-6" dy="-6" />
      <feGaussianBlur stdDeviation="10" />
      <feColorMatrix type="matrix" values="0 0 0 0 0 0 0 0 0 0 0 0 0 0 0 0 0 0 0.1 0" />
      <feBlend mode="normal" in2="BackgroundImageFix" result="effect1_dropShadow" />
      <feBlend mode="normal" in="SourceGraphic" in2="effect1_dropShadow" result="shape" />
    </filter>
    <linearGradient id="paint0_linear" x1="0" y1="344" x2="1024" y2="344" gradientUnits="userSpaceOnUse">
      <stop stop-color="#FF5F6D" />
      <stop offset="1" stop-color="#FFC371" />
    </linearGradient>
    <linearGradient id="paint1_linear" x1="409.11" y1="-132.237" x2="-89.9057" y2="539.753" gradientUnits="userSpaceOnUse">
      <stop stop-color="#5433FF" />
      <stop offset="0.5" stop-color="#20BDFF" />
      <stop offset="1" stop-color="#A5F9FE" />
    </linearGradient>
    <linearGradient id="paint2_linear" x1="269.072" y1="-115.451" x2="-57.5204" y2="201.828" gradientUnits="userSpaceOnUse">
      <stop offset="0.119792" stop-color="#00D9F5" />
      <stop offset="1" stop-color="#72FFCE" />
    </linearGradient>
    <linearGradient id="paint3_linear" x1="177.519" y1="424.436" x2="552.811" y2="-39.1378" gradientUnits="userSpaceOnUse">
      <stop offset="0.34375" stop-color="#9037AF" />
      <stop offset="1" stop-color="#EB3978" />
    </linearGradient>
    <linearGradient id="paint4_linear" x1="50.8611" y1="350.911" x2="585.184" y2="359.019" gradientUnits="userSpaceOnUse">
      <stop offset="0.307292" stop-color="#EB3978" />
      <stop offset="1" stop-color="#FFD12F" />
    </linearGradient>
    <linearGradient id="paint5_linear" x1="320.916" y1="-88.9758" x2="227.147" y2="603.564" gradientUnits="userSpaceOnUse">
      <stop stop-color="#FF48A0" />
      <stop offset="0.44809" stop-color="#FF8008" />
      <stop offset="1" stop-color="#FFC837" />
    </linearGradient>
    <linearGradient id="paint6_linear" x1="238.242" y1="681.359" x2="827.56" y2="-91.704" gradientUnits="userSpaceOnUse">
      <stop stop-color="#FFD12F" />
      <stop offset="0.729167" stop-color="#EB3978" />
    </linearGradient>
    <linearGradient id="paint7_linear" x1="521.261" y1="565.181" x2="939.767" y2="-159.691" gradientUnits="userSpaceOnUse">
      <stop offset="0.28125" stop-color="#EA3793" />
      <stop offset="0.625" stop-color="#BC2C91" />
      <stop offset="1" stop-color="#E33EE5" />
    </linearGradient>
    <linearGradient id="paint8_linear" x1="544.669" y1="655.5" x2="1008.17" y2="1.99992" gradientUnits="userSpaceOnUse">
      <stop offset="0.34375" stop-color="#9037AF" />
      <stop offset="1" stop-color="#EB3978" />
    </linearGradient>
    <linearGradient id="paint9_linear" x1="579.5" y1="748.5" x2="1040" y2="135.5" gradientUnits="userSpaceOnUse">
      <stop stop-color="#83D2FF" />
      <stop offset="0.414005" stop-color="#8E54E9" />
      <stop offset="1" stop-color="#6002F2" />
    </linearGradient>
    <linearGradient id="paint10_linear" x1="681.122" y1="831.228" x2="1099.63" y2="106.355" gradientUnits="userSpaceOnUse">
      <stop stop-color="#5433FF" />
      <stop offset="0.5" stop-color="#20BDFF" />
      <stop offset="1" stop-color="#A5F9FE" />
    </linearGradient>
    <linearGradient id="paint11_linear" x1="836.796" y1="802.659" x2="1064.46" y2="408.329" gradientUnits="userSpaceOnUse">
      <stop offset="0.119792" stop-color="#00D9F5" />
      <stop offset="1" stop-color="#72FFCE" />
    </linearGradient>
  </defs>
</svg>
