<svg width="1024" height="688" viewBox="0 0 1024 688" fill="none" xmlns="http://www.w3.org/2000/svg">
<mask id="mask0" mask-type="alpha" maskUnits="userSpaceOnUse" x="0" y="0" width="1024" height="688">
<rect width="1024" height="688" fill="url(#paint0_linear)"/>
</mask>
<g mask="url(#mask0)">
<g filter="url(#filter0_d)">
<path d="M428.361 -98.1476L424.756 -120.542L385.63 -149.597L139 36.5L-34.2829 272.468L-67.3936 460.459L-43.131 574.563L-33.5645 511.013C-21.1308 485.253 9.48475 438.676 18.5791 405.993C27.6735 373.31 46.5495 347.891 81.7282 334.579C116.907 321.266 148.839 313.974 167.715 288.555C186.591 263.136 196.366 208.743 219.463 181.618C242.56 154.492 255.56 148.175 290.738 134.863C325.917 121.55 357.835 105.816 383.232 85.2394C408.629 64.6629 427.505 39.2439 433.339 4.13993C439.173 -30.9641 431.965 -75.7531 428.361 -98.1476Z" fill="url(#paint1_linear)"/>
</g>
<g filter="url(#filter1_d)">
<path d="M249.148 27.3271C276.5 0.754995 274.889 -54.8138 290.343 -93.6331L259.409 -125.476L177.761 -46.1562C150.409 -19.5841 146.416 -82.1328 119.064 -55.5607C91.7119 -28.9887 -10.1479 -82.1328 -37.5 -55.5607C-64.8521 -28.9887 -39.8314 165.231 -53.7115 178.715L-67.1835 191.803L-24.3509 235.893L3.39857 237.501C31.5563 238.714 87.0552 241.932 109.648 210.461C132.241 178.99 121.111 113.623 143.704 82.1522C166.297 50.6813 221.796 53.8991 249.148 27.3271Z" fill="url(#paint2_linear)"/>
<path d="M249.148 27.3271C276.5 0.754995 274.889 -54.8138 290.343 -93.6331L259.409 -125.476L177.761 -46.1562C150.409 -19.5841 146.416 -82.1328 119.064 -55.5607C91.7119 -28.9887 -10.1479 -82.1328 -37.5 -55.5607C-64.8521 -28.9887 -39.8314 165.231 -53.7115 178.715L-67.1835 191.803L-24.3509 235.893L3.39857 237.501C31.5563 238.714 87.0552 241.932 109.648 210.461C132.241 178.99 121.111 113.623 143.704 82.1522C166.297 50.6813 221.796 53.8991 249.148 27.3271Z" stroke="black"/>
</g>
<path d="M355.5 81.5374C379.753 65.6939 443.838 -6.88645 450 -40L534.522 -72.5127L534.522 81.5374L25.022 490.037L-24.6837 455.087C-20.7672 357.166 8.55884 309.082 57 286.5C105.441 263.918 192.683 244.408 230 155.5C249.045 110.124 325.184 101.342 355.5 81.5374Z" fill="url(#paint3_linear)"/>
<path d="M458.031 79.0852C505.968 52.5405 505.974 -18.1985 486 -33.5L622 0L516.5 324.5L160 498.5L-56.5002 548L-7.00024 420C40.1877 412.516 100.444 399 126 341.5C160 265 263.5 253.237 314.5 231C355.696 213.037 334.276 170.683 354.5 138.5C374.723 106.317 398.11 112.266 458.031 79.0852Z" fill="url(#paint4_linear)"/>
<path d="M463 220.5C438.6 136.1 578.667 28 626 -3.5H806.5V705H-5V449.5C34.5 547.5 191.5 460.5 216 345C240.5 229.5 493.5 326 463 220.5Z" fill="url(#paint5_linear)"/>
<g filter="url(#filter2_d)">
<path d="M520.053 293.062C489.117 317.068 429.086 320.955 413.942 356.677C407.961 374.785 384.2 416.2 337 437C278 463 227.5 427 138.5 539.5C49.5001 652 43.0001 654.5 -22.9999 656L-22.9999 737L260 737L490.352 522.607L543.257 446.095L607.341 353.419L671.051 261.282L735.134 168.606L798.845 76.4692L862.928 -16.2068L915.834 -92.7183L926.639 -108.344L907.241 -121.757L883.505 -115.073C860.141 -108.928 813.042 -96.0993 788.572 -67.6224C763.729 -38.6067 761.89 5.51849 737.42 33.9955C712.95 62.4724 665.85 75.3011 631.682 97.0716C597.514 118.842 575.904 150.093 564.366 187.512C552.828 224.931 550.988 269.056 520.053 293.062Z" fill="url(#paint6_linear)"/>
</g>
<g filter="url(#filter3_d)">
<path d="M521.604 346.024C498.739 369.382 482.909 396.801 481.147 432.343C478.765 462.395 444.4 526.8 326 544C274.167 547.167 156 580.8 98.0003 690L528.5 690L914.844 112.066L926.136 -78.4839L888.925 -189.045L886.723 -124.816C877.331 -97.7988 852.27 -48.0124 846.991 -14.5013C841.711 19.0099 825.881 46.4293 792.465 63.6956C759.049 80.9619 728.165 91.8747 712.335 119.294C696.504 146.713 693.043 201.868 673.216 231.468C653.389 261.068 641.2 268.836 607.784 286.102C574.368 303.369 544.469 322.666 521.604 346.024Z" fill="url(#paint7_linear)"/>
</g>
<path d="M785 181.5C815.367 80.0057 903 5 946 -19H1021V714.5H512C512 714.5 149 794.5 305.5 714.5C399.178 666.614 467.75 629.495 512 569.5C541.676 529.266 548.539 469.664 589 423.5C689.794 308.5 729.5 367 785 181.5Z" fill="url(#paint8_linear)"/>
<g filter="url(#filter4_d)">
<path d="M942.999 176C996.599 139.6 988.666 39.5 977.999 -6L1069 -40.5L1117 205.5L696.999 703.5H525.499C581.499 682 613.999 620.5 618.999 572.5C623.999 524.5 693.999 489.5 731.499 457.5C768.999 425.5 800.999 377 811.999 339.5C822.999 302 875.999 221.5 942.999 176Z" fill="url(#paint9_linear)"/>
</g>
<g filter="url(#filter5_d)">
<path d="M657.528 799.206L663.681 821.039L705.887 845.406L1074.53 377.891L1085.82 187.341L1048.61 76.78L1046.41 141.009C1037.02 168.026 1011.95 217.813 1006.67 251.324C1001.4 284.835 985.565 312.254 952.149 329.521C918.733 346.787 887.849 357.7 872.019 385.119C856.188 412.538 852.727 467.694 832.9 497.293C813.073 526.893 800.884 534.661 767.468 551.928C734.052 569.194 704.153 588.491 681.288 611.849C658.423 635.207 642.593 662.626 640.831 698.168C639.069 733.71 651.375 777.374 657.528 799.206Z" fill="url(#paint10_linear)"/>
</g>
<g filter="url(#filter6_d)">
<path d="M817.239 660.237C798.172 693.262 814.879 746.284 810.6 787.847L849.047 810.045L905.963 711.462C925.03 678.437 945.932 737.525 965 704.5C984.067 671.475 1028.93 717.025 1048 684C1067.07 650.975 1057.65 448.74 1067.32 431.981L1076.71 415.715L1023.48 384.98L996.343 391.001C968.922 397.515 914.65 409.557 901.498 445.997C888.345 482.437 916.883 542.289 903.73 578.73C890.578 615.17 836.306 627.212 817.239 660.237Z" fill="url(#paint11_linear)"/>
<path d="M817.239 660.237C798.172 693.262 814.879 746.284 810.6 787.847L849.047 810.045L905.963 711.462C925.03 678.437 945.932 737.525 965 704.5C984.067 671.475 1028.93 717.025 1048 684C1067.07 650.975 1057.65 448.74 1067.32 431.981L1076.71 415.715L1023.48 384.98L996.343 391.001C968.922 397.515 914.65 409.557 901.498 445.997C888.345 482.437 916.883 542.289 903.73 578.73C890.578 615.17 836.306 627.212 817.239 660.237Z" stroke="black"/>
</g>
</g>
<defs>
<filter id="filter0_d" x="-209.279" y="-227.499" width="724.05" height="849.396" filterUnits="userSpaceOnUse" color-interpolation-filters="sRGB">
<feFlood flood-opacity="0" result="BackgroundImageFix"/>
<feColorMatrix in="SourceAlpha" type="matrix" values="0 0 0 0 0 0 0 0 0 0 0 0 0 0 0 0 0 0 127 0"/>
<feOffset dx="-6" dy="-6"/>
<feGaussianBlur stdDeviation="10"/>
<feColorMatrix type="matrix" values="0 0 0 0 0 0 0 0 0 0 0 0 0 0 0 0 0 0 0.1 0"/>
<feBlend mode="normal" in2="BackgroundImageFix" result="effect1_dropShadow"/>
<feBlend mode="normal" in="SourceGraphic" in2="effect1_dropShadow" result="shape"/>
</filter>
<filter id="filter1_d" x="-202.401" y="-263.899" width="571.522" height="568.224" filterUnits="userSpaceOnUse" color-interpolation-filters="sRGB">
<feFlood flood-opacity="0" result="BackgroundImageFix"/>
<feColorMatrix in="SourceAlpha" type="matrix" values="0 0 0 0 0 0 0 0 0 0 0 0 0 0 0 0 0 0 127 0"/>
<feOffset dx="-6" dy="-6"/>
<feGaussianBlur stdDeviation="10"/>
<feColorMatrix type="matrix" values="0 0 0 0 0 0 0 0 0 0 0 0 0 0 0 0 0 0 0.1 0"/>
<feBlend mode="normal" in2="BackgroundImageFix" result="effect1_dropShadow"/>
<feBlend mode="normal" in="SourceGraphic" in2="effect1_dropShadow" result="shape"/>
</filter>
<filter id="filter2_d" x="-86.8918" y="-331.341" width="1027.53" height="1253.14" filterUnits="userSpaceOnUse" color-interpolation-filters="sRGB">
<feFlood flood-opacity="0" result="BackgroundImageFix"/>
<feColorMatrix in="SourceAlpha" type="matrix" values="0 0 0 0 0 0 0 0 0 0 0 0 0 0 0 0 0 0 127 0"/>
<feOffset dx="-6" dy="-6"/>
<feGaussianBlur stdDeviation="10"/>
<feColorMatrix type="matrix" values="0 0 0 0 0 0 0 0 0 0 0 0 0 0 0 0 0 0 0.05 0"/>
<feBlend mode="normal" in2="BackgroundImageFix" result="effect1_dropShadow"/>
<feBlend mode="normal" in="SourceGraphic" in2="effect1_dropShadow" result="shape"/>
</filter>
<filter id="filter3_d" x="71.8606" y="-337.845" width="980.888" height="1251.06" filterUnits="userSpaceOnUse" color-interpolation-filters="sRGB">
<feFlood flood-opacity="0" result="BackgroundImageFix"/>
<feColorMatrix in="SourceAlpha" type="matrix" values="0 0 0 0 0 0 0 0 0 0 0 0 0 0 0 0 0 0 127 0"/>
<feOffset dx="-6" dy="-6"/>
<feGaussianBlur stdDeviation="10"/>
<feColorMatrix type="matrix" values="0 0 0 0 0 0 0 0 0 0 0 0 0 0 0 0 0 0 0.1 0"/>
<feBlend mode="normal" in2="BackgroundImageFix" result="effect1_dropShadow"/>
<feBlend mode="normal" in="SourceGraphic" in2="effect1_dropShadow" result="shape"/>
</filter>
<filter id="filter4_d" x="499.499" y="-66.5" width="631.5" height="784" filterUnits="userSpaceOnUse" color-interpolation-filters="sRGB">
<feFlood flood-opacity="0" result="BackgroundImageFix"/>
<feColorMatrix in="SourceAlpha" type="matrix" values="0 0 0 0 0 0 0 0 0 0 0 0 0 0 0 0 0 0 127 0"/>
<feOffset dx="-6" dy="-6"/>
<feGaussianBlur stdDeviation="10"/>
<feColorMatrix type="matrix" values="0 0 0 0 0 0 0 0 0 0 0 0 0 0 0 0 0 0 0.1 0"/>
<feBlend mode="normal" in2="BackgroundImageFix" result="effect1_dropShadow"/>
<feBlend mode="normal" in="SourceGraphic" in2="effect1_dropShadow" result="shape"/>
</filter>
<filter id="filter5_d" x="555.684" y="22.825" width="656.748" height="879.328" filterUnits="userSpaceOnUse" color-interpolation-filters="sRGB">
<feFlood flood-opacity="0" result="BackgroundImageFix"/>
<feColorMatrix in="SourceAlpha" type="matrix" values="0 0 0 0 0 0 0 0 0 0 0 0 0 0 0 0 0 0 127 0"/>
<feOffset dx="-6" dy="-6"/>
<feGaussianBlur stdDeviation="10"/>
<feColorMatrix type="matrix" values="0 0 0 0 0 0 0 0 0 0 0 0 0 0 0 0 0 0 0.1 0"/>
<feBlend mode="normal" in2="BackgroundImageFix" result="effect1_dropShadow"/>
<feBlend mode="normal" in="SourceGraphic" in2="effect1_dropShadow" result="shape"/>
</filter>
<filter id="filter6_d" x="704.091" y="321.035" width="481.258" height="557.647" filterUnits="userSpaceOnUse" color-interpolation-filters="sRGB">
<feFlood flood-opacity="0" result="BackgroundImageFix"/>
<feColorMatrix in="SourceAlpha" type="matrix" values="0 0 0 0 0 0 0 0 0 0 0 0 0 0 0 0 0 0 127 0"/>
<feOffset dx="-6" dy="-6"/>
<feGaussianBlur stdDeviation="10"/>
<feColorMatrix type="matrix" values="0 0 0 0 0 0 0 0 0 0 0 0 0 0 0 0 0 0 0.1 0"/>
<feBlend mode="normal" in2="BackgroundImageFix" result="effect1_dropShadow"/>
<feBlend mode="normal" in="SourceGraphic" in2="effect1_dropShadow" result="shape"/>
</filter>
<linearGradient id="paint0_linear" x1="0" y1="344" x2="1024" y2="344" gradientUnits="userSpaceOnUse">
<stop stop-color="#FF5F6D"/>
<stop offset="1" stop-color="#FFC371"/>
</linearGradient>
<linearGradient id="paint1_linear" x1="408.881" y1="-132.331" x2="-90.1342" y2="539.659" gradientUnits="userSpaceOnUse">
<stop stop-color="#5433FF"/>
<stop offset="0.5" stop-color="#20BDFF"/>
<stop offset="1" stop-color="#A5F9FE"/>
</linearGradient>
<linearGradient id="paint2_linear" x1="269.193" y1="-115.404" x2="-57.3993" y2="201.874" gradientUnits="userSpaceOnUse">
<stop offset="0.119792" stop-color="#00D9F5"/>
<stop offset="1" stop-color="#72FFCE"/>
</linearGradient>
<linearGradient id="paint3_linear" x1="176.796" y1="424.436" x2="552.089" y2="-39.1378" gradientUnits="userSpaceOnUse">
<stop offset="0.34375" stop-color="#9037AF"/>
<stop offset="1" stop-color="#EB3978"/>
</linearGradient>
<linearGradient id="paint4_linear" x1="50.3614" y1="351.411" x2="584.684" y2="359.519" gradientUnits="userSpaceOnUse">
<stop offset="0.307292" stop-color="#EB3978"/>
<stop offset="1" stop-color="#FFD12F"/>
</linearGradient>
<linearGradient id="paint5_linear" x1="320.917" y1="-88.4758" x2="227.147" y2="604.064" gradientUnits="userSpaceOnUse">
<stop stop-color="#FF48A0"/>
<stop offset="0.44809" stop-color="#FF8008"/>
<stop offset="1" stop-color="#FFC837"/>
</linearGradient>
<linearGradient id="paint6_linear" x1="238.35" y1="681.158" x2="827.669" y2="-91.9054" gradientUnits="userSpaceOnUse">
<stop stop-color="#FFD12F"/>
<stop offset="0.729167" stop-color="#EB3978"/>
</linearGradient>
<linearGradient id="paint7_linear" x1="521.122" y1="565.1" x2="939.627" y2="-159.772" gradientUnits="userSpaceOnUse">
<stop offset="0.28125" stop-color="#EA3793"/>
<stop offset="0.625" stop-color="#BC2C91"/>
<stop offset="1" stop-color="#E33EE5"/>
</linearGradient>
<linearGradient id="paint8_linear" x1="544" y1="655.5" x2="1007.5" y2="1.99992" gradientUnits="userSpaceOnUse">
<stop offset="0.34375" stop-color="#9037AF"/>
<stop offset="1" stop-color="#EB3978"/>
</linearGradient>
<linearGradient id="paint9_linear" x1="578.999" y1="749" x2="1039.5" y2="136" gradientUnits="userSpaceOnUse">
<stop stop-color="#83D2FF"/>
<stop offset="0.414005" stop-color="#8E54E9"/>
<stop offset="1" stop-color="#6002F2"/>
</linearGradient>
<linearGradient id="paint10_linear" x1="680.806" y1="830.925" x2="1099.31" y2="106.053" gradientUnits="userSpaceOnUse">
<stop stop-color="#5433FF"/>
<stop offset="0.5" stop-color="#20BDFF"/>
<stop offset="1" stop-color="#A5F9FE"/>
</linearGradient>
<linearGradient id="paint11_linear" x1="836.886" y1="803.024" x2="1064.55" y2="408.694" gradientUnits="userSpaceOnUse">
<stop offset="0.119792" stop-color="#00D9F5"/>
<stop offset="1" stop-color="#72FFCE"/>
</linearGradient>
</defs>
</svg>
