<svg width="1667" height="1121" viewBox="0 0 1667 1121" fill="none" xmlns="http://www.w3.org/2000/svg">
  <mask id="mask0" mask-type="alpha" maskUnits="userSpaceOnUse" x="0" y="0" width="1667" height="1121">
    <rect x="0.441284" y="0.990234" width="1665.6" height="1119.07" fill="url(#paint0_linear)" />
  </mask>
  <g mask="url(#mask0)">
    <g filter="url(#filter0_d)">
      <path d="M697.195 -158.653L691.333 -195.079L627.692 -242.338L226.533 60.3595L-55.3221 444.176L-109.178 749.954L-69.714 935.552L-54.1534 832.183C-33.9294 790.284 15.8687 714.523 30.6613 661.362C45.4539 608.202 76.1568 566.856 133.377 545.202C190.597 523.548 242.537 511.687 273.24 470.341C303.943 428.996 319.843 340.524 357.411 296.402C394.979 252.28 416.124 242.006 473.345 220.352C530.565 198.698 582.482 173.106 623.791 139.637C665.101 106.168 695.804 64.8227 705.293 7.72396C714.782 -49.3748 703.058 -122.227 697.195 -158.653Z" fill="url(#paint1_linear)" />
    </g>
    <g filter="url(#filter1_d)">
      <path d="M405.696 45.4391C450.186 2.21805 447.565 -88.1679 472.702 -151.31L422.385 -203.104L289.58 -74.0858C245.09 -30.8648 238.596 -132.604 194.106 -89.3828C149.616 -46.1618 -16.0649 -132.604 -60.5547 -89.3829C-105.045 -46.1618 -64.3469 269.747 -86.9238 291.68L-108.837 312.968L-39.167 384.683L5.96925 387.3C51.7694 389.272 142.042 394.506 178.79 343.317C215.539 292.128 197.436 185.805 234.185 134.616C270.934 83.4262 361.206 88.6602 405.696 45.4391Z" fill="url(#paint2_linear)" />
    </g>
    <path d="M578.683 133.616C618.132 107.846 722.371 -10.2108 732.393 -64.072L869.873 -116.956L869.873 133.616L41.141 798.066L-39.7082 741.217C-33.3379 581.942 14.3627 503.731 93.1552 467C171.948 430.269 313.851 398.535 374.55 253.92C405.529 180.114 529.373 165.829 578.683 133.616Z" fill="url(#paint3_linear)" />
    <path d="M745.457 129.627C823.429 86.4506 823.438 -28.6108 790.949 -53.4995L1012.16 0.99025L840.559 528.809L260.691 811.83L-91.4596 892.345L-10.9449 684.146C65.8092 671.972 163.82 649.988 205.388 556.461C260.691 432.029 429.04 412.896 511.994 376.726C579.002 347.508 544.162 278.616 577.057 226.269C609.951 173.921 647.991 183.598 745.457 129.627Z" fill="url(#paint4_linear)" />
    <path d="M753.539 359.647C713.851 222.365 941.677 46.534 1018.67 -4.70264H1312.26V1147.72H-7.69165V732.129C56.5575 891.532 311.927 750.021 351.778 562.154C391.629 374.286 803.149 531.249 753.539 359.647Z" fill="url(#paint5_linear)" />
    <g filter="url(#filter2_d)">
      <path d="M846.338 477.673C796.02 516.72 698.375 523.042 673.743 581.146C664.015 610.6 625.365 677.964 548.592 711.797C452.625 754.087 370.484 695.531 225.72 878.519C80.9559 1061.51 70.3833 1065.57 -36.9697 1068.01L-36.9697 1199.76L423.347 1199.76L798.027 851.041L884.082 726.591L988.317 575.848L1091.95 425.981L1196.18 275.238L1299.81 125.372L1404.05 -25.3714L1490.1 -149.822L1507.67 -175.238L1476.12 -197.055L1437.52 -186.183C1399.51 -176.188 1322.9 -155.321 1283.1 -109.002C1242.69 -61.8062 1239.7 9.9661 1199.9 56.2856C1160.1 102.605 1083.49 123.472 1027.91 158.883C972.333 194.294 937.184 245.126 918.416 305.99C899.649 366.853 896.657 438.625 846.338 477.673Z" fill="url(#paint6_linear)" />
    </g>
    <g filter="url(#filter3_d)">
      <path d="M848.862 563.819C811.671 601.812 785.921 646.411 783.055 704.222C779.181 753.104 723.285 857.862 530.7 885.839C446.39 890.989 254.185 945.696 159.845 1123.32L860.079 1123.32L1488.49 183.272L1506.86 -126.669L1446.33 -306.503L1442.75 -202.031C1427.47 -158.086 1386.71 -77.1049 1378.12 -22.5971C1369.54 31.9109 1343.79 76.5101 1289.43 104.595C1235.08 132.68 1184.85 150.43 1159.1 195.029C1133.35 239.628 1127.72 329.341 1095.47 377.487C1063.22 425.633 1043.39 438.268 989.039 466.353C934.685 494.438 886.053 525.825 848.862 563.819Z" fill="url(#paint7_linear)" />
    </g>
    <path d="M1277.29 296.211C1326.68 131.125 1469.23 9.12338 1539.17 -29.9141H1661.16V1163.17H833.24C833.24 1163.17 242.799 1293.29 497.356 1163.17C649.728 1085.28 761.264 1024.9 833.24 927.317C881.51 861.873 892.673 764.927 958.486 689.839C1122.43 502.784 1187.02 597.938 1277.29 296.211Z" fill="url(#paint8_linear)" />
    <g filter="url(#filter4_d)">
      <path d="M1534.29 287.265C1621.47 228.058 1608.57 65.2395 1591.22 -8.76894L1739.23 -64.8853L1817.31 335.249L1134.15 1145.28H855.197C946.285 1110.3 999.148 1010.27 1007.28 932.196C1015.41 854.121 1129.27 797.192 1190.27 745.142C1251.26 693.092 1303.31 614.204 1321.21 553.208C1339.1 492.212 1425.31 361.273 1534.29 287.265Z" fill="url(#paint9_linear)" />
    </g>
    <g filter="url(#filter5_d)">
      <path d="M1069.95 1300.95L1079.96 1336.46L1148.61 1376.09L1748.22 615.652L1766.59 305.711L1706.07 125.877L1702.49 230.349C1687.21 274.294 1646.45 355.275 1637.86 409.783C1629.27 464.291 1603.52 508.89 1549.17 536.975C1494.82 565.06 1444.58 582.81 1418.83 627.409C1393.08 672.008 1387.45 761.721 1355.2 809.867C1322.95 858.013 1303.13 870.648 1248.77 898.733C1194.42 926.818 1145.79 958.205 1108.6 996.199C1071.41 1034.19 1045.66 1078.79 1042.79 1136.6C1039.92 1194.41 1059.94 1265.44 1069.95 1300.95Z" fill="url(#paint10_linear)" />
    </g>
    <g filter="url(#filter6_d)">
      <path d="M1329.73 1074.91C1298.72 1128.62 1325.89 1214.87 1318.93 1282.47L1381.47 1318.58L1474.04 1158.23C1505.06 1104.51 1539.06 1200.62 1570.07 1146.9C1601.08 1093.18 1674.06 1167.27 1705.08 1113.56C1736.09 1059.84 1720.77 730.892 1736.5 703.633L1751.78 677.175L1665.19 627.183L1621.05 636.976C1576.45 647.572 1488.17 667.159 1466.78 726.431C1445.39 785.703 1491.81 883.057 1470.41 942.329C1449.02 1001.6 1360.74 1021.19 1329.73 1074.91Z" fill="url(#paint11_linear)" />
    </g>
  </g>
  <defs>
    <filter id="filter0_d" x="-323.672" y="-352.761" width="1152.65" height="1356.53" filterUnits="userSpaceOnUse" color-interpolation-filters="sRGB">
      <feFlood flood-opacity="0" result="BackgroundImageFix" />
      <feColorMatrix in="SourceAlpha" type="matrix" values="0 0 0 0 0 0 0 0 0 0 0 0 0 0 0 0 0 0 127 0" />
      <feOffset dx="-6" dy="-6" />
      <feGaussianBlur stdDeviation="10" />
      <feColorMatrix type="matrix" values="0 0 0 0 0 0 0 0 0 0 0 0 0 0 0 0 0 0 0.1 0" />
      <feBlend mode="normal" in2="BackgroundImageFix" result="effect1_dropShadow" />
      <feBlend mode="normal" in="SourceGraphic" in2="effect1_dropShadow" result="shape" />
    </filter>
    <filter id="filter1_d" x="-312.486" y="-411.968" width="904.553" height="899.188" filterUnits="userSpaceOnUse" color-interpolation-filters="sRGB">
      <feFlood flood-opacity="0" result="BackgroundImageFix" />
      <feColorMatrix in="SourceAlpha" type="matrix" values="0 0 0 0 0 0 0 0 0 0 0 0 0 0 0 0 0 0 127 0" />
      <feOffset dx="-6" dy="-6" />
      <feGaussianBlur stdDeviation="10" />
      <feColorMatrix type="matrix" values="0 0 0 0 0 0 0 0 0 0 0 0 0 0 0 0 0 0 0.1 0" />
      <feBlend mode="normal" in2="BackgroundImageFix" result="effect1_dropShadow" />
      <feBlend mode="normal" in="SourceGraphic" in2="effect1_dropShadow" result="shape" />
    </filter>
    <filter id="filter2_d" x="-124.603" y="-521.667" width="1646.28" height="2013.24" filterUnits="userSpaceOnUse" color-interpolation-filters="sRGB">
      <feFlood flood-opacity="0" result="BackgroundImageFix" />
      <feColorMatrix in="SourceAlpha" type="matrix" values="0 0 0 0 0 0 0 0 0 0 0 0 0 0 0 0 0 0 127 0" />
      <feOffset dx="-6" dy="-6" />
      <feGaussianBlur stdDeviation="10" />
      <feColorMatrix type="matrix" values="0 0 0 0 0 0 0 0 0 0 0 0 0 0 0 0 0 0 0.05 0" />
      <feBlend mode="normal" in2="BackgroundImageFix" result="effect1_dropShadow" />
      <feBlend mode="normal" in="SourceGraphic" in2="effect1_dropShadow" result="shape" />
    </filter>
    <filter id="filter3_d" x="133.618" y="-532.245" width="1570.41" height="2009.87" filterUnits="userSpaceOnUse" color-interpolation-filters="sRGB">
      <feFlood flood-opacity="0" result="BackgroundImageFix" />
      <feColorMatrix in="SourceAlpha" type="matrix" values="0 0 0 0 0 0 0 0 0 0 0 0 0 0 0 0 0 0 127 0" />
      <feOffset dx="-6" dy="-6" />
      <feGaussianBlur stdDeviation="10" />
      <feColorMatrix type="matrix" values="0 0 0 0 0 0 0 0 0 0 0 0 0 0 0 0 0 0 0.1 0" />
      <feBlend mode="normal" in2="BackgroundImageFix" result="effect1_dropShadow" />
      <feBlend mode="normal" in="SourceGraphic" in2="effect1_dropShadow" result="shape" />
    </filter>
    <filter id="filter4_d" x="829.197" y="-90.8853" width="1002.11" height="1250.16" filterUnits="userSpaceOnUse" color-interpolation-filters="sRGB">
      <feFlood flood-opacity="0" result="BackgroundImageFix" />
      <feColorMatrix in="SourceAlpha" type="matrix" values="0 0 0 0 0 0 0 0 0 0 0 0 0 0 0 0 0 0 127 0" />
      <feOffset dx="-6" dy="-6" />
      <feGaussianBlur stdDeviation="10" />
      <feColorMatrix type="matrix" values="0 0 0 0 0 0 0 0 0 0 0 0 0 0 0 0 0 0 0.1 0" />
      <feBlend mode="normal" in2="BackgroundImageFix" result="effect1_dropShadow" />
      <feBlend mode="normal" in="SourceGraphic" in2="effect1_dropShadow" result="shape" />
    </filter>
    <filter id="filter5_d" x="920.586" y="54.4062" width="1043.18" height="1405.22" filterUnits="userSpaceOnUse" color-interpolation-filters="sRGB">
      <feFlood flood-opacity="0" result="BackgroundImageFix" />
      <feColorMatrix in="SourceAlpha" type="matrix" values="0 0 0 0 0 0 0 0 0 0 0 0 0 0 0 0 0 0 127 0" />
      <feOffset dx="-6" dy="-6" />
      <feGaussianBlur stdDeviation="10" />
      <feColorMatrix type="matrix" values="0 0 0 0 0 0 0 0 0 0 0 0 0 0 0 0 0 0 0.1 0" />
      <feBlend mode="normal" in2="BackgroundImageFix" result="effect1_dropShadow" />
      <feBlend mode="normal" in="SourceGraphic" in2="effect1_dropShadow" result="shape" />
    </filter>
    <filter id="filter6_d" x="1161.98" y="539.464" width="757.733" height="881.984" filterUnits="userSpaceOnUse" color-interpolation-filters="sRGB">
      <feFlood flood-opacity="0" result="BackgroundImageFix" />
      <feColorMatrix in="SourceAlpha" type="matrix" values="0 0 0 0 0 0 0 0 0 0 0 0 0 0 0 0 0 0 127 0" />
      <feOffset dx="-6" dy="-6" />
      <feGaussianBlur stdDeviation="10" />
      <feColorMatrix type="matrix" values="0 0 0 0 0 0 0 0 0 0 0 0 0 0 0 0 0 0 0.1 0" />
      <feBlend mode="normal" in2="BackgroundImageFix" result="effect1_dropShadow" />
      <feBlend mode="normal" in="SourceGraphic" in2="effect1_dropShadow" result="shape" />
    </filter>
    <linearGradient id="paint0_linear" x1="0.441284" y1="560.527" x2="1666.04" y2="560.527" gradientUnits="userSpaceOnUse">
      <stop stop-color="#FF5F6D" />
      <stop offset="1" stop-color="#FFC371" />
    </linearGradient>
    <linearGradient id="paint1_linear" x1="665.511" y1="-214.254" x2="-146.167" y2="878.778" gradientUnits="userSpaceOnUse">
      <stop stop-color="#5433FF" />
      <stop offset="0.5" stop-color="#20BDFF" />
      <stop offset="1" stop-color="#A5F9FE" />
    </linearGradient>
    <linearGradient id="paint2_linear" x1="438.3" y1="-186.722" x2="-92.9222" y2="329.35" gradientUnits="userSpaceOnUse">
      <stop offset="0.119792" stop-color="#00D9F5" />
      <stop offset="1" stop-color="#72FFCE" />
    </linearGradient>
    <linearGradient id="paint3_linear" x1="288.011" y1="691.362" x2="898.447" y2="-62.6697" gradientUnits="userSpaceOnUse">
      <stop offset="0.34375" stop-color="#9037AF" />
      <stop offset="1" stop-color="#EB3978" />
    </linearGradient>
    <linearGradient id="paint4_linear" x1="82.3573" y1="572.581" x2="951.465" y2="585.77" gradientUnits="userSpaceOnUse">
      <stop offset="0.307292" stop-color="#EB3978" />
      <stop offset="1" stop-color="#FFD12F" />
    </linearGradient>
    <linearGradient id="paint5_linear" x1="522.432" y1="-142.921" x2="369.91" y2="983.536" gradientUnits="userSpaceOnUse">
      <stop stop-color="#FF48A0" />
      <stop offset="0.44809" stop-color="#FF8008" />
      <stop offset="1" stop-color="#FFC837" />
    </linearGradient>
    <linearGradient id="paint6_linear" x1="388.132" y1="1108.93" x2="1346.69" y2="-148.5" gradientUnits="userSpaceOnUse">
      <stop stop-color="#FFD12F" />
      <stop offset="0.729167" stop-color="#EB3978" />
    </linearGradient>
    <linearGradient id="paint7_linear" x1="848.077" y1="920.16" x2="1528.8" y2="-258.889" gradientUnits="userSpaceOnUse">
      <stop offset="0.28125" stop-color="#EA3793" />
      <stop offset="0.625" stop-color="#BC2C91" />
      <stop offset="1" stop-color="#E33EE5" />
    </linearGradient>
    <linearGradient id="paint8_linear" x1="885.29" y1="1067.2" x2="1639.2" y2="4.24356" gradientUnits="userSpaceOnUse">
      <stop offset="0.34375" stop-color="#9037AF" />
      <stop offset="1" stop-color="#EB3978" />
    </linearGradient>
    <linearGradient id="paint9_linear" x1="942.218" y1="1219.28" x2="1691.25" y2="222.203" gradientUnits="userSpaceOnUse">
      <stop stop-color="#83D2FF" />
      <stop offset="0.414005" stop-color="#8E54E9" />
      <stop offset="1" stop-color="#6002F2" />
    </linearGradient>
    <linearGradient id="paint10_linear" x1="1107.81" y1="1352.54" x2="1788.54" y2="173.491" gradientUnits="userSpaceOnUse">
      <stop stop-color="#5433FF" />
      <stop offset="0.5" stop-color="#20BDFF" />
      <stop offset="1" stop-color="#A5F9FE" />
    </linearGradient>
    <linearGradient id="paint11_linear" x1="1361.69" y1="1307.16" x2="1732" y2="665.755" gradientUnits="userSpaceOnUse">
      <stop offset="0.119792" stop-color="#00D9F5" />
      <stop offset="1" stop-color="#72FFCE" />
    </linearGradient>
  </defs>
</svg>
