<svg width="184" height="112" viewBox="0 0 184 112" fill="none" xmlns="http://www.w3.org/2000/svg">
<path fill-rule="evenodd" clip-rule="evenodd" d="M102.667 74.6667C102.667 79.8001 98.4667 84.0001 93.3333 84.0001H112V93.3334H0V84.0001H18.6667C13.5333 84.0001 9.33333 79.8001 9.33333 74.6667V28.0001C9.33333 22.8667 13.5333 18.6667 18.6667 18.6667H93.3333C98.4667 18.6667 102.667 22.8667 102.667 28.0001V74.6667ZM93.3333 28H18.6666V74.6667H93.3333V28Z" fill="white"/>
<path fill-rule="evenodd" clip-rule="evenodd" d="M170.667 29H133.333C129.653 29 126.667 31.9867 126.667 35.6667V86.3333C126.667 90.0133 129.653 93 133.333 93H170.667C174.347 93 177.333 90.0133 177.333 86.3333V35.6667C177.333 31.9867 174.347 29 170.667 29ZM152 90.3333C149.787 90.3333 148 88.5467 148 86.3333C148 84.12 149.787 82.3333 152 82.3333C154.213 82.3333 156 84.12 156 86.3333C156 88.5467 154.213 90.3333 152 90.3333ZM132 79.6667H172V37H132V79.6667Z" fill="white"/>
</svg>
