<svg width="24" height="24" viewBox="0 0 24 24" fill="none" xmlns="http://www.w3.org/2000/svg">
<rect x="2.63696" y="18.0747" width="14.9806" height="3.92533" rx="1.96267" fill="black"/>
<path d="M20.426 4.40505L19.719 3.69805L19.72 3.69705C19.2512 3.22838 18.6154 2.96509 17.9525 2.96509C17.2896 2.96509 16.6538 3.22838 16.185 3.69705L3.925 15.9571L2.677 20.2121C2.62685 20.3839 2.62375 20.5661 2.66803 20.7395C2.71231 20.913 2.80233 21.0714 2.92872 21.1982C3.0551 21.3249 3.2132 21.4155 3.38651 21.4603C3.55982 21.5052 3.74199 21.5026 3.914 21.4531L8.134 20.2331L20.426 7.94005C20.8947 7.47123 21.158 6.83546 21.158 6.17255C21.158 5.50964 20.8947 4.87387 20.426 4.40505Z" fill="white"/>
<path d="M14.738 7.97205L5.7 17.0101L5.109 19.0261L7.084 18.4551L16.152 9.38705L14.738 7.97205ZM16.28 6.43005L17.694 7.84405L19.012 6.52605C19.1057 6.43229 19.1584 6.30514 19.1584 6.17255C19.1584 6.03997 19.1057 5.91282 19.012 5.81905L18.304 5.11205C18.2102 5.01832 18.0831 4.96566 17.9505 4.96566C17.8179 4.96566 17.6908 5.01832 17.597 5.11205L16.281 6.43005H16.28ZM19.719 3.69805L20.426 4.40505C20.8947 4.87387 21.158 5.50964 21.158 6.17255C21.158 6.83546 20.8947 7.47123 20.426 7.94005L8.134 20.2331L3.914 21.4531C3.74199 21.5026 3.55982 21.5052 3.38651 21.4603C3.2132 21.4155 3.0551 21.3249 2.92872 21.1982C2.80233 21.0714 2.71231 20.913 2.66803 20.7395C2.62375 20.5661 2.62685 20.3839 2.677 20.2121L3.925 15.9571L16.185 3.69705C16.6538 3.22838 17.2896 2.96509 17.9525 2.96509C18.6154 2.96509 19.2512 3.22838 19.72 3.69705L19.719 3.69805Z" fill="black"/>
</svg>
