<svg width="534" height="251" viewBox="0 0 534 251" fill="none" xmlns="http://www.w3.org/2000/svg">
<path d="M165.824 9.95092C165.824 4.45518 170.279 0 175.775 0H353.233C358.729 0 363.184 4.45518 363.184 9.95093V250.432H165.824V9.95092Z" fill="#8E34A8"/>
<rect x="184.068" y="19.9014" width="160.873" height="210.628" rx="9.95093" fill="#9337AE"/>
<path d="M287.683 203.939V219.728H244.681V203.939H257.87V185.457C257.312 186.2 256.446 186.943 255.269 187.686C254.093 188.367 252.761 189.017 251.275 189.636C249.851 190.256 248.396 190.751 246.91 191.122C245.424 191.494 244.093 191.68 242.917 191.68V175.519C243.784 175.519 244.991 175.21 246.539 174.591C248.087 173.91 249.635 173.136 251.183 172.269C252.731 171.34 254.124 170.38 255.362 169.39C256.662 168.337 257.498 167.439 257.87 166.696H275.887V203.939H287.683Z" fill="white"/>
<path d="M363 117.753C363 112.257 367.455 107.802 372.951 107.802H523.873C529.369 107.802 533.824 112.257 533.824 117.753V240.482C533.824 245.977 529.37 250.432 523.874 250.432H363V117.753Z" fill="#8E34A8"/>
<rect x="376.268" y="119.411" width="144.288" height="119.411" rx="9.95093" fill="#9337AE"/>
<path d="M430.998 250.432L363 114.436V250.432H430.998Z" fill="#44374E" fill-opacity="0.2"/>
<path d="M454.553 200.249C455.78 200.447 456.887 200.863 457.876 201.496C458.905 202.129 459.775 202.92 460.487 203.869C461.239 204.819 461.813 205.906 462.208 207.133C462.643 208.32 462.861 209.586 462.861 210.931C462.861 212.79 462.465 214.471 461.674 215.975C460.883 217.478 459.755 218.744 458.292 219.772C456.868 220.84 455.107 221.651 453.011 222.205C450.914 222.759 448.56 223.036 445.949 223.036C442.903 223.036 440.213 222.64 437.879 221.849C435.545 221.098 433.428 219.911 431.529 218.289L437.285 210.1C438.433 211.01 439.639 211.682 440.905 212.117C442.211 212.513 443.694 212.711 445.356 212.711C447.373 212.711 448.837 212.414 449.747 211.821C450.696 211.188 451.171 210.199 451.171 208.854C451.171 207.35 450.578 206.282 449.391 205.649C448.204 204.977 446.266 204.641 443.575 204.641H441.736V196.808H443.813C445.712 196.808 447.235 196.452 448.382 195.74C449.529 194.988 450.103 193.979 450.103 192.713C450.103 191.764 449.767 191.032 449.094 190.518C448.422 189.964 447.472 189.687 446.246 189.687C444.861 189.687 443.556 190.043 442.329 190.755C441.143 191.428 440.094 192.456 439.184 193.841L432.063 185.474C432.776 184.683 433.666 183.97 434.734 183.338C435.841 182.665 437.068 182.091 438.413 181.617C439.797 181.142 441.261 180.786 442.804 180.549C444.347 180.272 445.929 180.133 447.551 180.133C449.727 180.133 451.725 180.39 453.545 180.905C455.364 181.379 456.907 182.072 458.173 182.981C459.439 183.891 460.428 184.999 461.14 186.305C461.852 187.57 462.208 188.995 462.208 190.577C462.208 191.764 462.01 192.891 461.615 193.959C461.219 195.027 460.685 195.997 460.013 196.867C459.34 197.737 458.529 198.469 457.58 199.063C456.67 199.656 455.661 200.052 454.553 200.249Z" fill="#BB6BD9"/>
<path d="M0 81.2659C0 75.7701 4.45518 71.3149 9.95093 71.3149H155.898C161.394 71.3149 165.849 75.7701 165.849 81.2659V250.432H9.95001C4.45478 250.432 0 245.977 0 240.482V81.2659Z" fill="#8E34A8"/>
<rect x="18.2432" y="89.5581" width="129.362" height="142.63" rx="9.95093" fill="#9337AE"/>
<path d="M98 250.432L165.998 77.9487V250.432H98Z" fill="#44374E" fill-opacity="0.2"/>
<path d="M65.1243 219.605C65.1243 217.394 65.3012 215.448 65.655 213.768C66.0089 212.087 66.5838 210.583 67.3799 209.257C68.176 207.885 69.1932 206.669 70.4315 205.608C71.7141 204.546 73.2841 203.507 75.1416 202.49C77.5298 201.207 79.4094 200.19 80.7805 199.438C82.1957 198.642 83.2571 198.001 83.9648 197.514C84.6724 197.028 85.1146 196.63 85.2916 196.32C85.5127 195.966 85.6232 195.591 85.6232 195.193C85.6232 194.087 85.2694 193.269 84.5618 192.738C83.8542 192.207 82.8812 191.942 81.6429 191.942C80.1834 191.942 78.7903 192.318 77.4635 193.07C76.1809 193.822 74.832 195.038 73.4168 196.718L65.456 187.364C66.2963 186.436 67.3799 185.595 68.7067 184.844C70.0335 184.047 71.4929 183.384 73.0851 182.853C74.7215 182.278 76.4463 181.836 78.2596 181.527C80.0728 181.217 81.9303 181.062 83.8321 181.062C88.9181 181.062 92.7658 182.124 95.3752 184.246C98.0287 186.325 99.3555 189.244 99.3555 193.003C99.3555 194.374 99.1786 195.591 98.8248 196.652C98.471 197.713 97.9845 198.686 97.3653 199.571C96.7904 200.411 96.0828 201.185 95.2425 201.893C94.4022 202.6 93.5177 203.264 92.5889 203.883C91.4832 204.635 90.3112 205.365 89.0729 206.072C87.8788 206.736 86.6847 207.487 85.4906 208.328H100.085V219.605H65.1243Z" fill="#BB6BD9"/>
</svg>
