<svg width="20" height="20" viewBox="0 0 20 20" fill="none" xmlns="http://www.w3.org/2000/svg">
<path d="M19 2H16V1C16 0.734784 15.8946 0.48043 15.7071 0.292893C15.5196 0.105357 15.2652 0 15 0H5C4.73478 0 4.48043 0.105357 4.29289 0.292893C4.10536 0.48043 4 0.734784 4 1V2H1C0.734784 2 0.48043 2.10536 0.292893 2.29289C0.105357 2.48043 0 2.73478 0 3V6C0 7.06087 0.421427 8.07828 1.17157 8.82843C1.92172 9.57857 2.93913 10 4 10H5.54C6.44453 11.0091 7.66406 11.6824 9 11.91V14H8C7.20435 14 6.44129 14.3161 5.87868 14.8787C5.31607 15.4413 5 16.2044 5 17V19C5 19.2652 5.10536 19.5196 5.29289 19.7071C5.48043 19.8946 5.73478 20 6 20H14C14.2652 20 14.5196 19.8946 14.7071 19.7071C14.8946 19.5196 15 19.2652 15 19V17C15 16.2044 14.6839 15.4413 14.1213 14.8787C13.5587 14.3161 12.7956 14 12 14H11V11.91C12.3359 11.6824 13.5555 11.0091 14.46 10H16C17.0609 10 18.0783 9.57857 18.8284 8.82843C19.5786 8.07828 20 7.06087 20 6V3C20 2.73478 19.8946 2.48043 19.7071 2.29289C19.5196 2.10536 19.2652 2 19 2ZM4 8C3.46957 8 2.96086 7.78929 2.58579 7.41421C2.21071 7.03914 2 6.53043 2 6V4H4V6C4.0022 6.68171 4.12056 7.35806 4.35 8H4ZM12 16C12.2652 16 12.5196 16.1054 12.7071 16.2929C12.8946 16.4804 13 16.7348 13 17V18H7V17C7 16.7348 7.10536 16.4804 7.29289 16.2929C7.48043 16.1054 7.73478 16 8 16H12ZM14 6C14 7.06087 13.5786 8.07828 12.8284 8.82843C12.0783 9.57857 11.0609 10 10 10C8.93913 10 7.92172 9.57857 7.17157 8.82843C6.42143 8.07828 6 7.06087 6 6V2H14V6ZM18 6C18 6.53043 17.7893 7.03914 17.4142 7.41421C17.0391 7.78929 16.5304 8 16 8H15.65C15.8794 7.35806 15.9978 6.68171 16 6V4H18V6Z" fill="white"/>
</svg>
