<svg width="510" height="688" viewBox="0 0 510 688" fill="none" xmlns="http://www.w3.org/2000/svg">
<rect x="-2" width="512" height="688" fill="url(#paint0_linear)"/>
<path d="M244 -4.5H-2.5V316.5H244V-4.5Z" fill="url(#paint1_linear)"/>
<g filter="url(#filter0_d)">
<path fill-rule="evenodd" clip-rule="evenodd" d="M-51.8506 524.82L-66.909 491.311C-82.3399 458.34 -112.829 391.86 -98.058 356.677C-82.9144 320.955 -22.8829 317.068 8.05262 293.062C38.9881 269.056 40.8277 224.931 52.3659 187.512C63.9042 150.093 85.5136 118.842 119.682 97.0717C153.85 75.3011 200.95 62.4725 225.42 33.9955C249.89 5.51863 251.729 -38.6065 276.572 -67.6223C301.041 -96.0992 348.141 -108.928 371.505 -115.073L395.241 -121.757L414.639 -108.344L403.834 -92.7182C393.402 -77.6314 372.165 -46.9191 350.928 -16.2067C329.319 15.0445 308.082 45.7569 286.845 76.4693C265.608 107.182 244.371 137.894 223.134 168.606C201.897 199.319 180.288 230.57 159.051 261.282C137.814 291.995 116.577 322.707 95.3404 353.42C74.1036 384.132 52.8667 414.844 31.2573 446.095C10.0204 476.808 -11.2165 507.52 -21.6486 522.607L-32.4533 538.233L-51.8506 524.82Z" fill="url(#paint2_linear)"/>
</g>
<g filter="url(#filter1_d)">
<path d="M-14.1562 533.381L-2.5 641L25.5 631L402.843 112.066L414.136 -78.4838L376.925 -189.045L374.723 -124.816C365.331 -97.7987 340.27 -48.0123 334.99 -14.5012C329.711 19.01 313.881 46.4294 280.464 63.6957C247.048 80.962 216.165 91.8748 200.334 119.294C184.504 146.714 181.043 201.868 161.216 231.468C141.388 261.068 129.2 268.836 95.7839 286.103C62.3677 303.369 32.4686 322.666 9.60381 346.024C-13.261 369.382 -29.0916 396.801 -30.8537 432.343C-32.6158 467.885 -20.3094 511.549 -14.1562 533.381L-14.1562 533.381Z" fill="url(#paint3_linear)"/>
</g>
<path d="M273 181.5C298.6 78.7 391 5 434 -19H509V714.5H0V639.5C83 583.5 72.5 452 99 387.5C125.5 323 241 310 273 181.5Z" fill="url(#paint4_linear)"/>
<g filter="url(#filter2_d)">
<path d="M431 176C484.6 139.6 476.667 39.5 466 -6L557 -40.5L605 205.5L185 703.5H13.5C69.5 682 102 620.5 107 572.5C112 524.5 182 489.5 219.5 457.5C257 425.5 289 377 300 339.5C311 302 364 221.5 431 176Z" fill="url(#paint5_linear)"/>
</g>
<g filter="url(#filter3_d)">
<path d="M145.529 799.207L151.682 821.039L193.888 845.406L562.528 377.891L573.821 187.342L536.61 76.7803L534.408 141.009C525.016 168.027 499.955 217.813 494.676 251.324C489.396 284.835 473.566 312.255 440.15 329.521C406.733 346.787 375.85 357.7 360.02 385.119C344.189 412.539 340.728 467.694 320.901 497.294C301.074 526.893 288.885 534.662 255.469 551.928C222.053 569.194 192.154 588.491 169.289 611.849C146.424 635.207 130.594 662.627 128.831 698.169C127.069 733.71 139.376 777.375 145.529 799.207Z" fill="url(#paint6_linear)"/>
</g>
<g filter="url(#filter4_d)">
<path d="M305.24 660.237C286.173 693.263 302.88 746.285 298.6 787.847L337.047 810.045L393.964 711.462C413.031 678.437 433.933 737.525 453 704.5C472.067 671.475 516.933 717.025 536 684C555.067 650.975 545.647 448.74 555.322 431.981L564.714 415.715L511.479 384.98L484.343 391.001C456.922 397.515 402.65 409.557 389.498 445.997C376.346 482.438 404.883 542.29 391.731 578.73C378.579 615.17 324.307 627.212 305.24 660.237Z" fill="url(#paint7_linear)"/>
<path d="M305.24 660.237C286.173 693.263 302.88 746.285 298.6 787.847L337.047 810.045L393.964 711.462C413.031 678.437 433.933 737.525 453 704.5C472.067 671.475 516.933 717.025 536 684C555.067 650.975 545.647 448.74 555.322 431.981L564.714 415.715L511.479 384.98L484.343 391.001C456.922 397.515 402.65 409.557 389.498 445.997C376.346 482.438 404.883 542.29 391.731 578.73C378.579 615.17 324.307 627.212 305.24 660.237Z" stroke="black"/>
</g>
<defs>
<filter id="filter0_d" x="-188.491" y="-224.262" width="617.13" height="776.495" filterUnits="userSpaceOnUse" color-interpolation-filters="sRGB">
<feFlood flood-opacity="0" result="BackgroundImageFix"/>
<feColorMatrix in="SourceAlpha" type="matrix" values="0 0 0 0 0 0 0 0 0 0 0 0 0 0 0 0 0 0 127 0"/>
<feOffset dx="-6" dy="-6"/>
<feGaussianBlur stdDeviation="10"/>
<feColorMatrix type="matrix" values="0 0 0 0 0 0 0 0 0 0 0 0 0 0 0 0 0 0 0.05 0"/>
<feBlend mode="normal" in2="BackgroundImageFix" result="effect1_dropShadow"/>
<feBlend mode="normal" in="SourceGraphic" in2="effect1_dropShadow" result="shape"/>
</filter>
<filter id="filter1_d" x="-151.771" y="-243" width="692.519" height="941.285" filterUnits="userSpaceOnUse" color-interpolation-filters="sRGB">
<feFlood flood-opacity="0" result="BackgroundImageFix"/>
<feColorMatrix in="SourceAlpha" type="matrix" values="0 0 0 0 0 0 0 0 0 0 0 0 0 0 0 0 0 0 127 0"/>
<feOffset dx="-6" dy="-6"/>
<feGaussianBlur stdDeviation="10"/>
<feColorMatrix type="matrix" values="0 0 0 0 0 0 0 0 0 0 0 0 0 0 0 0 0 0 0.1 0"/>
<feBlend mode="normal" in2="BackgroundImageFix" result="effect1_dropShadow"/>
<feBlend mode="normal" in="SourceGraphic" in2="effect1_dropShadow" result="shape"/>
</filter>
<filter id="filter2_d" x="-12.5" y="-66.5" width="631.5" height="784" filterUnits="userSpaceOnUse" color-interpolation-filters="sRGB">
<feFlood flood-opacity="0" result="BackgroundImageFix"/>
<feColorMatrix in="SourceAlpha" type="matrix" values="0 0 0 0 0 0 0 0 0 0 0 0 0 0 0 0 0 0 127 0"/>
<feOffset dx="-6" dy="-6"/>
<feGaussianBlur stdDeviation="10"/>
<feColorMatrix type="matrix" values="0 0 0 0 0 0 0 0 0 0 0 0 0 0 0 0 0 0 0.1 0"/>
<feBlend mode="normal" in2="BackgroundImageFix" result="effect1_dropShadow"/>
<feBlend mode="normal" in="SourceGraphic" in2="effect1_dropShadow" result="shape"/>
</filter>
<filter id="filter3_d" x="43.6851" y="22.8253" width="656.748" height="879.328" filterUnits="userSpaceOnUse" color-interpolation-filters="sRGB">
<feFlood flood-opacity="0" result="BackgroundImageFix"/>
<feColorMatrix in="SourceAlpha" type="matrix" values="0 0 0 0 0 0 0 0 0 0 0 0 0 0 0 0 0 0 127 0"/>
<feOffset dx="-6" dy="-6"/>
<feGaussianBlur stdDeviation="10"/>
<feColorMatrix type="matrix" values="0 0 0 0 0 0 0 0 0 0 0 0 0 0 0 0 0 0 0.1 0"/>
<feBlend mode="normal" in2="BackgroundImageFix" result="effect1_dropShadow"/>
<feBlend mode="normal" in="SourceGraphic" in2="effect1_dropShadow" result="shape"/>
</filter>
<filter id="filter4_d" x="192.091" y="321.036" width="481.258" height="557.647" filterUnits="userSpaceOnUse" color-interpolation-filters="sRGB">
<feFlood flood-opacity="0" result="BackgroundImageFix"/>
<feColorMatrix in="SourceAlpha" type="matrix" values="0 0 0 0 0 0 0 0 0 0 0 0 0 0 0 0 0 0 127 0"/>
<feOffset dx="-6" dy="-6"/>
<feGaussianBlur stdDeviation="10"/>
<feColorMatrix type="matrix" values="0 0 0 0 0 0 0 0 0 0 0 0 0 0 0 0 0 0 0.1 0"/>
<feBlend mode="normal" in2="BackgroundImageFix" result="effect1_dropShadow"/>
<feBlend mode="normal" in="SourceGraphic" in2="effect1_dropShadow" result="shape"/>
</filter>
<linearGradient id="paint0_linear" x1="-2" y1="344" x2="510" y2="344" gradientUnits="userSpaceOnUse">
<stop stop-color="#FF5F6D"/>
<stop offset="1" stop-color="#FFC371"/>
</linearGradient>
<linearGradient id="paint1_linear" x1="96.5" y1="-43" x2="34.5" y2="264" gradientUnits="userSpaceOnUse">
<stop stop-color="#FF00B8" stop-opacity="0.4"/>
<stop offset="0.44809" stop-color="#FF8008"/>
<stop offset="1" stop-color="#FFC837"/>
</linearGradient>
<linearGradient id="paint2_linear" x1="-6.00002" y1="406" x2="377.5" y2="-78.5" gradientUnits="userSpaceOnUse">
<stop stop-color="#FFD12F"/>
<stop offset="0.729167" stop-color="#EB3978"/>
</linearGradient>
<linearGradient id="paint3_linear" x1="9.12164" y1="565.1" x2="427.627" y2="-159.772" gradientUnits="userSpaceOnUse">
<stop offset="0.28125" stop-color="#EA3793"/>
<stop offset="0.625" stop-color="#BC2C91"/>
<stop offset="1" stop-color="#E33EE5"/>
</linearGradient>
<linearGradient id="paint4_linear" x1="32" y1="655.5" x2="495.5" y2="2.00001" gradientUnits="userSpaceOnUse">
<stop offset="0.34375" stop-color="#9037AF"/>
<stop offset="1" stop-color="#EB3978"/>
</linearGradient>
<linearGradient id="paint5_linear" x1="67" y1="749" x2="527.5" y2="136" gradientUnits="userSpaceOnUse">
<stop stop-color="#83D2FF"/>
<stop offset="0.414005" stop-color="#8E54E9"/>
<stop offset="1" stop-color="#6002F2"/>
</linearGradient>
<linearGradient id="paint6_linear" x1="168.807" y1="830.926" x2="587.312" y2="106.053" gradientUnits="userSpaceOnUse">
<stop stop-color="#5433FF"/>
<stop offset="0.5" stop-color="#20BDFF"/>
<stop offset="1" stop-color="#A5F9FE"/>
</linearGradient>
<linearGradient id="paint7_linear" x1="324.887" y1="803.024" x2="552.553" y2="408.694" gradientUnits="userSpaceOnUse">
<stop offset="0.119792" stop-color="#00D9F5"/>
<stop offset="1" stop-color="#72FFCE"/>
</linearGradient>
</defs>
</svg>
