<svg width="21" height="16" viewBox="0 0 21 16" fill="none" xmlns="http://www.w3.org/2000/svg">
  <path d="M10.93 0.100001C10.7676 0.0297435 10.5895 0.0038334 10.4138 0.0249153C10.2381 0.0459973 10.0712 0.113316 9.93 0.220001L5.15 4H1.5C1.23478 4 0.98043 4.10536 0.792893 4.29289C0.605357 4.48043 0.5 4.73479 0.5 5V11C0.5 11.2652 0.605357 11.5196 0.792893 11.7071C0.98043 11.8946 1.23478 12 1.5 12H5.15L9.88 15.78C10.0559 15.9212 10.2744 15.9987 10.5 16C10.6494 16.0025 10.797 15.9681 10.93 15.9C11.1002 15.819 11.244 15.6915 11.3448 15.5322C11.4457 15.373 11.4995 15.1885 11.5 15V1C11.4995 0.811515 11.4457 0.627018 11.3448 0.46778C11.244 0.308543 11.1002 0.18105 10.93 0.100001ZM9.5 12.92L6.12 10.22C5.94406 10.0788 5.72556 10.0013 5.5 10H2.5V6H5.5C5.72556 5.99869 5.94406 5.92116 6.12 5.78L9.5 3.08V12.92Z" fill="white" />
</svg>
