<svg width="21" height="16" viewBox="0 0 21 16" fill="none" xmlns="http://www.w3.org/2000/svg">
<path d="M10.43 0.100001C10.2676 0.0297435 10.0895 0.0038334 9.91379 0.0249153C9.73811 0.0459973 9.57116 0.113316 9.43 0.220001L4.65 4H1C0.734784 4 0.48043 4.10536 0.292893 4.29289C0.105357 4.48043 0 4.73479 0 5V11C0 11.2652 0.105357 11.5196 0.292893 11.7071C0.48043 11.8946 0.734784 12 1 12H4.65L9.38 15.78C9.55594 15.9212 9.77444 15.9987 10 16C10.1494 16.0025 10.297 15.9681 10.43 15.9C10.6002 15.819 10.744 15.6915 10.8448 15.5322C10.9457 15.373 10.9995 15.1885 11 15V1C10.9995 0.811515 10.9457 0.627018 10.8448 0.46778C10.744 0.308543 10.6002 0.18105 10.43 0.100001ZM9 12.92L5.62 10.22C5.44406 10.0788 5.22556 10.0013 5 10H2V6H5C5.22556 5.99869 5.44406 5.92116 5.62 5.78L9 3.08V12.92ZM17.66 2.34C17.4717 2.1517 17.2163 2.04591 16.95 2.04591C16.6837 2.04591 16.4283 2.1517 16.24 2.34C16.0517 2.52831 15.9459 2.7837 15.9459 3.05C15.9459 3.3163 16.0517 3.5717 16.24 3.76C16.8289 4.34794 17.289 5.05193 17.5911 5.82725C17.8933 6.60257 18.0309 7.43227 17.9951 8.26362C17.9594 9.09496 17.7511 9.90979 17.3835 10.6563C17.016 11.4029 16.4971 12.0648 15.86 12.6C15.7053 12.7323 15.5946 12.9087 15.5428 13.1056C15.491 13.3025 15.5005 13.5105 15.5701 13.7018C15.6396 13.8931 15.766 14.0587 15.9321 14.1763C16.0983 14.2939 16.2964 14.358 16.5 14.36C16.7337 14.3605 16.9601 14.2791 17.14 14.13C17.9909 13.4173 18.6843 12.5353 19.1759 11.5401C19.6675 10.545 19.9466 9.45837 19.9955 8.34948C20.0444 7.24058 19.862 6.13364 19.4599 5.09905C19.0579 4.06446 18.4449 3.12486 17.66 2.34ZM14.83 5.17C14.7368 5.07676 14.6261 5.0028 14.5042 4.95234C14.3824 4.90188 14.2519 4.87591 14.12 4.87591C13.9881 4.87591 13.8576 4.90188 13.7358 4.95234C13.6139 5.0028 13.5032 5.07676 13.41 5.17C13.3168 5.26324 13.2428 5.37393 13.1923 5.49575C13.1419 5.61757 13.1159 5.74814 13.1159 5.88C13.1159 6.01186 13.1419 6.14243 13.1923 6.26425C13.2428 6.38607 13.3168 6.49676 13.41 6.59C13.7856 6.96335 13.9978 7.47042 14 8C14.0002 8.29135 13.9368 8.57923 13.8142 8.84351C13.6915 9.10779 13.5126 9.34208 13.29 9.53C13.1887 9.61395 13.105 9.71705 13.0437 9.8334C12.9823 9.94975 12.9445 10.0771 12.9325 10.208C12.9204 10.339 12.9343 10.4711 12.9733 10.5967C13.0124 10.7223 13.0758 10.839 13.16 10.94C13.2447 11.0405 13.3483 11.1234 13.465 11.1838C13.5817 11.2443 13.7092 11.2811 13.8401 11.2923C13.9711 11.3034 14.1029 11.2886 14.2282 11.2488C14.3534 11.2089 14.4696 11.1448 14.57 11.06C15.0171 10.6851 15.3768 10.217 15.6238 9.68834C15.8709 9.15973 15.9992 8.58348 16 8C15.9944 6.94011 15.5744 5.92445 14.83 5.17Z" fill="white"/>
</svg>
