<svg width="24" height="24" viewBox="0 0 24 24" fill="none" xmlns="http://www.w3.org/2000/svg">
<path d="M22.9906 3.95C22.9906 3.7735 22.9438 3.60014 22.8551 3.44755C22.7664 3.29497 22.6389 3.16858 22.4855 3.08122C22.3321 2.99387 22.1584 2.94867 21.9819 2.95021C21.8054 2.95175 21.6325 2.99998 21.4806 3.09C20.8951 3.43881 20.2645 3.70595 19.6066 3.884C18.6676 3.07827 17.4699 2.63741 16.2326 2.642C14.8754 2.64363 13.5718 3.17263 12.5973 4.11732C11.6228 5.06201 11.0535 6.34844 11.0096 7.705C8.33342 7.27832 5.9079 5.88153 4.19562 3.781C4.09245 3.65597 3.96075 3.55756 3.81161 3.49404C3.66248 3.43052 3.50026 3.40375 3.33862 3.416C3.17702 3.42937 3.02111 3.48189 2.88434 3.569C2.74757 3.65611 2.63407 3.77521 2.55362 3.916C2.14115 4.6359 1.90426 5.44293 1.86222 6.27155C1.82017 7.10018 1.97414 7.92705 2.31162 8.685L2.30962 8.686C2.15761 8.77941 2.03215 8.91032 1.9453 9.06617C1.85844 9.22202 1.8131 9.39758 1.81362 9.576C1.81202 9.72279 1.82104 9.86951 1.84062 10.015C1.94275 11.2731 2.50026 12.4506 3.40862 13.327C3.34698 13.4445 3.3094 13.5731 3.29807 13.7054C3.28673 13.8376 3.30188 13.9707 3.34262 14.097C3.7386 15.3312 4.58088 16.3731 5.70462 17.019C4.56279 17.4604 3.32992 17.6143 2.11462 17.467C1.8898 17.439 1.66214 17.4883 1.46893 17.6066C1.27573 17.7249 1.12843 17.9053 1.05116 18.1183C0.973897 18.3313 0.971241 18.5642 1.04363 18.7789C1.11602 18.9936 1.25917 19.1773 1.44962 19.3C3.53983 20.646 5.9735 21.3616 8.45962 21.361C11.2789 21.3927 14.0296 20.4919 16.2839 18.7986C18.5382 17.1053 20.1697 14.7145 20.9246 11.998C21.2776 10.8148 21.4578 9.58675 21.4596 8.352L21.4586 8.152C21.9808 7.5888 22.3853 6.92703 22.6483 6.20548C22.9114 5.48392 23.0278 4.71711 22.9906 3.95ZM19.6846 7.162C19.5193 7.35722 19.4355 7.60862 19.4506 7.864C19.4606 8.029 19.4596 8.195 19.4596 8.352C19.4575 9.39518 19.3046 10.4326 19.0056 11.432C18.3893 13.7436 17.015 15.7815 15.1029 17.2193C13.1908 18.6571 10.8515 19.4116 8.45962 19.362C7.60075 19.3621 6.74486 19.2611 5.90962 19.061C6.97493 18.7174 7.97098 18.1879 8.85162 17.497C9.01401 17.3693 9.13288 17.1945 9.19189 16.9965C9.2509 16.7986 9.24716 16.5872 9.18118 16.3915C9.1152 16.1957 8.99022 16.0252 8.82341 15.9034C8.65661 15.7815 8.45616 15.7143 8.24962 15.711C7.41835 15.698 6.62459 15.3628 6.03562 14.776C6.18496 14.748 6.33329 14.713 6.48062 14.671C6.69665 14.6096 6.88571 14.4772 7.01736 14.2953C7.14901 14.1133 7.21557 13.8924 7.20633 13.668C7.1971 13.4436 7.11259 13.2288 6.96643 13.0583C6.82027 12.8878 6.62097 12.7714 6.40062 12.728C5.91812 12.6327 5.46409 12.4274 5.07385 12.128C4.68362 11.8287 4.36769 11.4433 4.15062 11.002C4.33138 11.0267 4.51329 11.0421 4.69562 11.048C4.91231 11.0516 5.12449 10.986 5.30142 10.8609C5.47834 10.7357 5.61082 10.5575 5.67962 10.352C5.74567 10.1448 5.74236 9.92164 5.67017 9.71646C5.59799 9.51128 5.46088 9.33523 5.27962 9.215C4.83956 8.92206 4.47903 8.52454 4.23034 8.05804C3.98164 7.59155 3.85255 7.07064 3.85462 6.542C3.85462 6.476 3.85662 6.409 3.86062 6.344C6.10209 8.43463 9.00954 9.66702 12.0706 9.824C12.2252 9.82987 12.3791 9.8005 12.5206 9.73814C12.6621 9.67577 12.7877 9.58202 12.8876 9.464C12.9867 9.34525 13.0568 9.20515 13.0925 9.05471C13.1283 8.90428 13.1287 8.7476 13.0936 8.597C13.0364 8.35821 13.0072 8.11356 13.0066 7.868C13.0077 7.01274 13.3479 6.19281 13.9527 5.58804C14.5574 4.98328 15.3774 4.64306 16.2326 4.642C16.6728 4.6407 17.1084 4.73067 17.512 4.90623C17.9156 5.08179 18.2785 5.33913 18.5776 5.662C18.693 5.78612 18.8381 5.87867 18.9994 5.93083C19.1606 5.98299 19.3324 5.99303 19.4986 5.96C19.9094 5.88015 20.3144 5.77257 20.7106 5.638C20.4404 6.19082 20.0952 6.70367 19.6846 7.162Z" fill="white"/>
</svg>
