<?xml version="1.0" encoding="UTF-8"?>
<svg xmlns="http://www.w3.org/2000/svg" xmlns:xlink="http://www.w3.org/1999/xlink" width="15pt" height="15pt" viewBox="0 0 15 15" version="1.1">
<g id="surface1">
<path style=" stroke:none;fill-rule:nonzero;fill:#A206F0;fill-opacity:1;" d="M 13.464844 7.824219 C 13.558594 7.6875 13.625 7.527344 13.636719 7.335938 C 13.679688 6.367188 12.546875 4.550781 10.816406 2.820312 C 9.105469 1.105469 7.351562 0 6.34375 0 C 6.007812 0.00390625 5.808594 0.136719 5.699219 0.246094 C 5.699219 0.246094 4.789062 1.371094 4.789062 1.371094 C 3.09375 1.445312 0.683594 2.648438 0.683594 4.433594 C 0.683594 4.90625 0.855469 5.328125 1.191406 5.6875 C 1.28125 5.789062 1.394531 5.882812 1.511719 5.96875 C 1.515625 5.972656 1.796875 6.15625 1.800781 6.160156 C 2.6875 6.671875 3.878906 6.816406 4.433594 6.816406 C 5.371094 6.816406 6.050781 6.792969 6.941406 6.453125 C 7.113281 6.390625 7.316406 6.484375 7.378906 6.652344 C 7.410156 6.738281 7.410156 6.832031 7.371094 6.914062 C 7.335938 6.996094 7.265625 7.0625 7.183594 7.09375 C 6.183594 7.472656 5.414062 7.5 4.433594 7.5 C 3.453125 7.5 2.054688 7.238281 1.078125 6.496094 C 0.929688 6.386719 0.722656 6.410156 0.605469 6.554688 L 0.21875 7.039062 C 0.125 7.132812 0.0117188 7.300781 0 7.574219 C -0.0390625 8.394531 0.875 9.863281 2.324219 11.3125 C 3.738281 12.726562 5.183594 13.640625 6.011719 13.640625 C 6.015625 13.640625 6.03125 13.640625 6.035156 13.640625 C 6.328125 13.632812 6.503906 13.515625 6.570312 13.445312 L 13.28125 8.027344 C 13.285156 8.027344 13.449219 7.863281 13.464844 7.824219 Z M 1.683594 5.21875 C 1.46875 4.988281 1.367188 4.730469 1.367188 4.433594 C 1.367188 3.304688 2.859375 2.410156 4.171875 2.136719 Z M 9.238281 4.398438 C 8.074219 3.230469 7.410156 2.257812 7.082031 1.628906 C 7.738281 1.972656 8.730469 2.664062 9.851562 3.785156 C 11.011719 4.945312 11.675781 5.921875 12.003906 6.550781 C 11.347656 6.210938 10.359375 5.519531 9.238281 4.398438 Z M 9.238281 4.398438 "/>
<path style=" stroke:none;fill-rule:nonzero;fill:#A206F0;fill-opacity:1;" d="M 13.574219 10.375 C 13.449219 10.191406 13.140625 10.191406 13.015625 10.375 C 12.777344 10.71875 11.589844 12.476562 11.589844 13.296875 C 11.589844 14.234375 12.355469 15 13.296875 15 C 14.234375 15 15 14.234375 15 13.296875 C 15 12.476562 13.8125 10.71875 13.574219 10.375 Z M 13.574219 10.375 "/>
</g>
</svg>
